<?xml version="1.0" encoding="utf-8"?>
<!-- Generator: Adobe Illustrator 26.0.1, SVG Export Plug-In . SVG Version: 6.00 Build 0)  -->
<svg version="1.1" id="create_x5F_table_x5F_layer" xmlns="http://www.w3.org/2000/svg" xmlns:xlink="http://www.w3.org/1999/xlink"
	 x="0px" y="0px" viewBox="0 0 747.9 762.5" style="enable-background:new 0 0 747.9 762.5;" xml:space="preserve">
<style type="text/css">
	.st0{fill:#FFCCCC;}
	.st1{fill:#FFFFFF;}
</style>
<path d="M335.5,607.5c1.7,2.3,6.2,2.8,4,7.7c-1.7,3.6,3,3.7,4.2,3.7c7.8-0.2,14.8,4,22,4.3c13,0.7,26.1,2.8,39.1,1.3
	c18.8-2.1,37.4-5.5,56.1-8.1c2.9-0.3,5.8-1.2,8.3-2.7c6.4-3.8,7.7-5,4.7-11.2c-1.7-3.5-0.4-4.5,1.5-6.4c3.1-3.1,6.9-3.1,11-3.2
	c9.8-0.3,19.6-1.9,29-4.6c2.5-0.7,4.9-1.9,7.3-2.8c-4.5,0.2-9,0.5-13.4,0.7c-0.9,0.7-2.1,1.2-3.3,1.4c-4.6,0.8-9.3,2-13.8,1.7
	c-12.9-0.9-24.2,4.3-35.4,9.1c-12.8,5.5-26,7.4-39.6,8.3c-9.6,0.7-19.1,1.4-28.5,3.4c-7.2,1.5-14.1,2.6-21.4-0.5
	c-5.6-2.3-11.7-2.7-17.6-1.2c-0.1,2,1.8,5.4-1.8,5.4c-3.3,0-2.2-3.3-2-5.5C342.6,605.2,338.9,607.8,335.5,607.5z M467.9,602.5
	c0.4,0,0.9,0.6,1.3,1c-0.5,0.3-1,0.9-1.4,0.9s-0.9-0.6-1.3-1C466.9,603.1,467.5,602.5,467.9,602.5z M354.5,610.5
	c1,0,2.1,0.3,2.1,1.3c0,2.2-1.7,3.3-3.7,3.5c-1,0.1-1.4-1-1.4-2C351.6,611.4,352.7,610.5,354.5,610.5z"/>
<path d="M580.1,573c4.4-1,8.8-3.3,13.5-2.4c3.2-1.1,6.4-2.3,9.6-3.5c-1.4,0.1-3-0.2-4.9-1c-4-1.6-7.6-3.8-12.2-2.3
	c-0.4,0.1-1.5-1.9-2.3-2.9c-10.1-5.4-18.8-1.8-27.1,4.1c6.3-0.1,11.6-4.4,18.1-4c2.5,0.2,4.6,0.3,6.1,2.3c1.3,1.7-0.5,3-1.1,4.4
	c-1.3,3-3.5,2.7-5.7,1.3s-4.7-2.4-5.3,1.1c-0.5,2.8,2.2,3.7,4.6,4S577.8,573.5,580.1,573z"/>
<path d="M720.7,454.2c0.1,0.4,0.2,0.9,0.1,1.4c-0.2,6.3,0.8,12.6-0.7,18.9c-3.2,13.9-6,27.9-10.3,41.6c-0.6,2.3-1.5,4.4-2.6,6.5
	c-6,9.7-9.4,20.6-13.2,31.2c-4.7,13.5-10.3,26.7-16.5,39.5c-9.1,18.4-19.5,35.8-36.7,48.6c-13.5,10.1-25.1,22.8-39.2,32.3
	c-14.9,10-27.8,22.8-43.7,31.3c-11.8,6.3-23.4,12.7-36.8,15.7c-13.9,3.1-27.4,8.7-41.7,9.4c-14.3,0.7-28.3,3.7-42.4,5.5
	c-4.9,0.6-9.9,0.8-14.2,3.8l4.9,0.8c3.1-2.7,6.6-1.3,10,0h-10c-1.3,6.3-7.3,4.2-10.4,4.4c-6.6,0.5-11.2,3.5-15.5,7.6
	c5.7,1.5,11.1-0.3,16.6-1.3c13.7-2.7,27.4-4.8,41.2-6.8c15.4-2.2,31.2-1.9,46.2-7.1c5.9-2.1,12-3.7,18.1-5.2
	c17.1-4,33.2-11.4,47.5-21.6c9.1-6.6,17.8-13.7,27-19.9c12.5-8.4,23.6-18.3,35.3-27.5c8-6.4,15.9-12.9,23.6-19.8
	c15.1-13.4,21.7-32.1,30.1-49.5c6.8-14.2,11.8-29.4,17.8-44c8.8-21.5,18.1-42.7,22.3-65.8c2.5-13.6,3.1-26.9-1.7-40.1
	C723.9,447.3,722.1,450.7,720.7,454.2z M444.5,739.2c-0.1,0.2-0.5,0.3-0.8,0.5c-0.7,0-1.1-0.5-1-1.2c0.1-0.2,0.5-0.4,0.8-0.4
	C444.3,738,444.7,738.4,444.5,739.2z"/>
<path d="M535.5,584.9c-1.1,0.1-2.2,0.1-3.4,0.2c0.3,0.1,0.6,0.2,0.9,0.4C533.9,585.8,534.7,585.4,535.5,584.9z"/>
<path d="M455.7,634.1c10.2-0.7,20.4-2.6,30.2-5.5c16.5-4.8,33.2-9,49.4-14.9c13.3-5,26.1-11.4,38.2-19c3.9-2.4,8.1-4.5,12.3-6.7
	c4.2-2.1,8-4.7,11.6-7.6c-3,0.3-6.1,0.5-9.1,0.8c-12.6,9-25.5,17.5-40.7,21.4c-4.5,1.2-6.2,5.2-10.8,6.6
	c-21.6,6.5-43.2,12.8-65.6,15.8c-9.5,6.1-20.5,3.5-30.7,4.9c-10.7,1.6-21.7,3.1-32.7,2.8c-4.2-0.1-8.5,1.4-12.8,1.8
	c-11.3,0.9-22.3-1.9-33.5-2.7c-21.2-1.5-41.8-7.6-62.9-9.8c-8.7-0.9-16.6-5.3-24.6-9.3c-7.2-3.7-14.4-7.7-21.9-10.9
	c-10.6-4.6-19.6-12.3-27.9-20.3c-8.3-8-16.2-16.3-24.6-24.1c-11-10.2-21.9-21-30.1-34.2c-5-8-11.4-15.1-16.4-23.3
	c-3.4-5.7-6.8-11.2-9.7-17.2c-2.5-5-4.5-10.2-8.5-14.5c-5.2-5.6-6.4-13.4-9.2-20.2c-3.8-9.4-6.2-19.3-10.1-28.9
	c-7.4-18.2-14.6-37-12.1-57.5c0.2-2.3,0-4.7-0.6-6.9c-5-18.3-3.7-36.6-0.9-55c0.9-6.1,0-12.4,0.7-18.7c1.5-13.1,6.6-25,10.1-37.4
	c2.2-7.9,5.8-15.3,5.8-23.8c0-4.7,5.5-10.4,8.4-9.7c2.9,0.7,7.6,8.6,6.6,12.5c-2,7.6-0.7,15.7-4.7,23c-1.8,3.2-0.9,9.8-2.6,11.2
	c-7.3,5.8-1.8,13.9-5.2,20.4c-3.3,6.1-1.5,14.1-3.6,21.1c-0.6,1.9-0.5,4,0.1,5.9c3.7,10.3,3.4,20.9,2.4,31.5
	c-0.8,8.7,0.9,17.2,0.9,25.9c0,4-0.2,7.9-0.3,11.9c-0.3,17.7,6.2,34.3,8.7,51.6c0.5,4.8,4.1,8.8,8.8,9.8c3.5,0.9,5.1,3.7,6,7.3
	c1.7,6.7,2.1,14.7,11.6,16c0.9,0.1,2.8,3.5,0.7,3.8c-5.6,0.7-2.2,3.5-1.9,5.7c1,7.6,6.6,13,9.3,19.7c1.3,3.1,5.1,4.2,6.6,3
	c5-4.1,6.9,0.7,8.6,3c4.3,5.6,9.6,10.1,15,14.5c2.5,2.2,5.9,3.3,9.2,2.9c-2.1-7.8-8.9-12.1-13.8-17.5
	c-11.1-12.3-22.6-24.4-32.4-37.7c-6.2-8.4-12.2-17.3-14.8-28c-1.8-7.4-4.7-14.5-7.2-21.8c-9.2-27.1-10.1-55.3-11.3-83.4
	c-0.2-5-1.1-9.9-1.8-14.8c-1.5-11-0.5-21.7,5.1-31.6c1.2-2,2-4.2,2.1-6.6c0.3-15.2,6.6-29,10.9-43.2c2.6-8.6,4.8-17.3,8-25.7
	c5.7-14.4,12.8-28,25-38.1c-0.5-1.2-0.2-2.8,0.9-3.5c0.4-1.3,1.5-2.3,3.3-2.3c0.2,0,0.4,0,0.6,0.1c0.1-0.6,0.2-1.2,0.2-1.8
	c-5.9,4.1-11.1,9.6-19.3,10c-6.7,0.3-9.6,4-8,10.5c2,8.3-1,13.9-7.4,18.5c-1.6,0.2-2.2-0.9-2.9-2.1c-3.3-6.7-4.3-7.1-10.2-3.7
	c-2.3,1.3-5.2,4.1-5.8-0.2c-0.6-4.7-5.1,2.7-4.7-2.2c0.2-2.3-0.9-5.2,0.8-6.7c5.2-4.4,3.9-12.3,9.3-16.4
	c-7.5,1.7-14.4,4.3-19.2,10.7c1.8,0.9,5.3,0.7,4.6,3.6c-0.7,2.9-4.3,1.8-6.5,2.8c-4.6,2.7-7.9,7.6-13.5,8.7c-3.2-3.2,2-5.3,0.6-8.1
	c-5.8,0.9-9.1,6.6-14.6,7.9c-5.2,1.2-9.8,4.6-13.2,7.8c-17,16.2-34.6,32.1-43.1,55.2c-5.1,13.9-12.9,26.8-14,42
	c-0.3,1.6-0.7,3.2-1.3,4.8c-3.3,12.9-7,25.7-5.9,39.3c0.1,3-0.2,6-0.9,8.9C-0.5,362-0.1,378,0.2,393.8c0.4,14.9,2.4,29.8,5.8,44.3
	c0.6,2.6,0.7,5.3,1.2,7.9c3,16.3,4.5,32.8,11.2,48.4c4.9,11.5,9.2,23.5,13.5,35.3c5.9,16.2,12.3,32.1,21.5,46.8
	c7.7,11.9,16.7,22.9,26.9,32.7c15,14.6,28.8,30.3,43.2,45.5c7.3,7.7,14.6,15.3,21.9,22.8c4.6,4.8,10.6,8.3,15,13.1
	c4.6,5,10.6,7,15.6,10.8c11.9,9.2,25.1,16.2,36.5,25.9c7.1,6.1,16.9,7.5,25.1,12c9.7,5.3,20.5,7.6,31.2,9.7c5,1,9.9,3.9,15.4,1.7
	c-0.5-1.9-1.8-2.6-3.6-2.8c-9.1-1-17.8-3.9-26.6-6.4c-2.7-0.8-4.5-2.6-6.8-4.2c3.9-2,7.6,2.2,11.2,0.1c-10.9-4.7-21.7-9.9-32.8-14
	c-10-3.7-16.6-12-25.6-17.1c-9.5-5.4-18.2-12.2-27.3-18.3c-16.8-11.3-29.7-26.6-43.3-41.1c-14.8-15.7-29.7-31.4-44.5-47.1
	c-16.2-17-29.4-35.9-37.4-58.3c-6.4-17.8-14.1-35.1-20.4-53c-2.9-8.1-5-16.5-6.2-25.1c-3.6-23.6-9.4-46.9-10-71
	c-0.4-16,1.1-31.9,2.3-47.8c1.3-19.6,4.5-39,9.6-57.9c3-11.1,8.3-21,12.7-31.4c11.9-28.3,33.7-47.1,59.7-61.8
	c4.6-2.6,9.1-5.5,13.9-7.7c3.8-1.8,5.5-0.4,5.6,3.9c0.1,2.4-1.1,4.5-1.8,6.7c-3.9,12.5-9.3,24.6-8.7,38.4c0.3,6.7-1.6,13.8-2.9,20.5
	c-3.8,19.7-3.8,39.6-5.8,59.4c-0.6,5.2,3.2,9.4,2,14.4c-3.4,14.6,2.8,28.8,2,43.4c-0.6,11.5,2.7,22.6,6.9,33
	c4.6,11.3,6.1,23.6,12.6,34.4c3.3,5.5,4.2,12.5,6.7,18.7c7.8,18.7,18.1,36.1,28.5,53.4c13.9,23.2,33.2,41.7,53.8,58.8
	c4.1,3.4,7.1,7.8,10.9,11.5c18.9,18.7,42.6,29,65.9,40.3c2.1,0.9,4.4,1.6,6.7,1.9c23.5,4.1,47.2,7.5,70.5,12.4c14.9,3,29.3,2,44.3,1
	C422.7,637,439.1,635.2,455.7,634.1z M136.6,213.1c0.2,0,0.4,0.3,0.5,0.5c-0.2,0.2-0.4,0.5-0.6,0.5s-0.3-0.3-0.5-0.5
	C136.2,213.4,136.4,213.1,136.6,213.1z M78.5,197.3c4.4-7.6,4.4-7.6,13.6-8.3C87.8,193.8,83.1,194.3,78.5,197.3z"/>
<path d="M174.5,143.4c-0.5,0.8-1,1.6-1.4,2.4c1.9,0.7,3.7,0.2,5.5-0.5C176.9,145.6,175.1,144.8,174.5,143.4z"/>
<path d="M178.4,145.3c-1.7,0.7-3.5,1.2-5.4,0.5l-0.2,0.1c-0.3,2.4-1.8,2.7-3.8,2.2l-7.5,2.1c-0.6,1.2-1.3,1.6-2.4,0.6l-3.5,1.5
	c-2.7,3.4-5.5,3.7-7.4-0.5c-1-2.2-2.5-2.6-4.4-3c-0.1,3-2.2,3.2-4.5,3.3l-0.2,0.2c0.1,1.7,0.3,3.3-2.1,3.5l-0.3,0.4
	c0.3,1.3-0.2,1.9-1.5,1.6l-0.2,0.3c0.1,3.7-2.4,4.3-5.2,4.5c-5.4,4.1-4.2,12-9.3,16.4c-1.7,1.5-0.6,4.4-0.8,6.7
	c-0.4,4.8,4.1-2.5,4.7,2.2c0.6,4.4,3.5,1.6,5.8,0.2c5.9-3.4,6.9-2.9,10.2,3.7c0.6,1.3,1.2,2.3,2.9,2.1c6.4-4.5,9.4-10.1,7.4-18.5
	c-1.5-6.5,1.4-10.1,8-10.5c8.2-0.4,13.4-6,19.4-10.1c0.5-3.4,1.1-6.7,1.8-10C179.2,145.1,178.8,145.3,178.4,145.3z"/>
<path d="M422.9,739.8l4.9,0.8l0,0c-1.3,6.3-7.3,4.2-10.4,4.4c-6.6,0.5-11.1,3.5-15.5,7.6l0,0c-2.5-1.5-5.3-1.2-7.8-0.5
	c-9.6,2.6-19.5,3.6-29.3,5.3c-4.7,0.8-9.7-1-13.5,0.4c-6.4,2.5-11.7,1.2-17.7-0.3c-6.4-1.6-13-2-19.4,0.8h-0.1
	c-0.2-2.3-1.4-2.9-3.5-2.2l-0.3-0.2c0-0.6,0-1.7-0.1-1.8c-7.3-2-14.7-3.6-22.3-1.9l-3.5-1.2c-0.5-1.9-1.8-2.6-3.6-2.8
	c-9.1-1-17.8-3.9-26.6-6.4c-2.7-0.8-4.5-2.6-6.8-4.2c3.9-2,7.6,2.2,11.2,0.1l3.4,0.9c3,3,6.9,3,10.6,3.3l3.1,0.3
	c2.2,0.3,3.3,5.3,6.5,1.7l3.7,0.3c5.5,3.5,11.6,2.2,17.6,2.6l6.5,2c4.1,5.3,9.5,4,14.8,2.9l3,0.4c5.4,0.8,10.9,2.3,16.3,2.3
	c4.6,0,9.9,2.2,14-2c2.5-0.7,5.1-0.8,7.6-0.4c4.4,0.7,8.8,1.9,12.6-1.7l6.1-1.8c2.2,0.8,4.6,0,5.9-1.9h0.2
	c10.1-1.3,20.2-2.6,29.8-6.3L422.9,739.8z"/>
<path d="M314,758.3c6.4-2.8,13-2.4,19.4-0.8c6,1.5,11.3,2.8,17.7,0.3c3.8-1.5,8.8,0.4,13.5-0.4c9.8-1.7,19.6-2.7,29.3-5.3
	c2.5-0.7,5.2-0.9,7.8,0.5c-0.2,1.9-1.5,2.8-3.2,3.3c-25.9,6.7-52.9,8.3-79.4,4.8C317.2,760.5,315.1,760.4,314,758.3z"/>
<path d="M108.6,179.7c-4.7,2.7-7.9,7.6-13.5,8.7c-3.2-3.2,2-5.3,0.6-8.1c1-1.6,2.7-1.8,4.2-2.3c-0.4,0.8-0.1,1.3,0.7,1
	s0.7-0.9-0.2-1.2l2.2-0.9c1.3,1,2.9,0.9,4.4,0.7L108.6,179.7z"/>
<path d="M287.7,752.3c7.6-1.7,15-0.1,22.3,1.9c0.2,0,0.1,1.2,0.1,1.8C302.2,757.4,294.8,755.7,287.7,752.3z"/>
<path d="M155.6,152.2c-2.7,3.4-5.5,3.7-7.4-0.5c-1-2.3-2.5-2.6-4.4-3c1.9-3.4,4.5-2.5,6.5-0.5C151.9,149.8,153.1,151.8,155.6,152.2z
	"/>
<path d="M110.5,173.3c1.8,0.9,5.3,0.6,4.6,3.6s-4.3,1.8-6.5,2.8l-1.6-2c0.9-1.2,2.3-2.1,2-3.9C109.3,173.3,109.9,173.1,110.5,173.3z
	"/>
<path d="M109,173.8c0.3,1.8-1.1,2.7-2,3.9c-1.5,0.2-3.1,0.4-4.4-0.7C103.8,174.6,106.4,173.3,109,173.8z"/>
<path d="M135,158.1c0.1,3.7-2.4,4.3-5.2,4.5C130.4,160.2,132.5,158.4,135,158.1z"/>
<path d="M143.8,148.8c-0.1,3-2.2,3.2-4.5,3.3C139.7,149.4,141.5,148.8,143.8,148.8z"/>
<path d="M723.3,434.7c-1.6-2.2-2.1-4.2,1-5.7L723.3,434.7z"/>
<path d="M139.1,152.3c0.1,1.7,0.3,3.3-2.1,3.5C136.5,153.9,137,152.6,139.1,152.3z"/>
<path d="M310.4,756.1c2.1-0.8,3.3-0.1,3.5,2.2C311.8,759,310.3,758.8,310.4,756.1z"/>
<path d="M172.9,145.9c-0.3,2.4-1.9,2.7-3.8,2.2C169.5,146.5,171.2,145.5,172.9,145.9L172.9,145.9z"/>
<path d="M100.4,177.9c0.8,0.3,0.9,0.9,0.2,1.2s-1.1-0.2-0.7-1L100.4,177.9z"/>
<path d="M136.7,156.1c0.3,1.3-0.2,1.9-1.5,1.6C134.9,156.4,135.4,155.9,136.7,156.1z"/>
<path d="M161.5,150.2c-0.6,1.2-1.3,1.6-2.4,0.6c0.3-0.8,1.1-1.2,1.9-0.9C161.2,150,161.4,150.1,161.5,150.2z"/>
<path class="st0" d="M720.8,455.7c0.1-0.5,0-1-0.1-1.5c-1.2,3-2.1,6.1-2.7,9.2c-0.8,4.2-6.6,3-7-0.7c-4.9,9.4-11,18.2-15.8,27.6
	c-10.7,21-28.4,34.8-46.1,48.7c-5.7,4.5-10.5,10.2-17,13.7c-4.9,2.6-9.3,5.7-13.5,9.2c2.3-0.6,4.6-1.1,7-1.4c3.7-0.5,4.4,4,2.2,6.2
	c-0.4,0.9-1.1,1.6-2.3,1.9c-3.1,0.9-6.2,1.8-9.4,2.8c0.5-0.1,1-0.1,1.6-0.2c4.7-0.5,4.6,6.8,0,7.3c-6.7,0.7-13.5,1.4-20.2,2
	c-3.7,2.9-7.5,5.6-11.8,7.8c-4.2,2.1-8.3,4.2-12.3,6.7c-12,7.6-24.8,14-38.2,19c-16.2,5.9-32.9,10.1-49.4,14.9
	c-9.8,2.9-20,4.7-30.2,5.5c-16.5,1-33,2.8-49.5,3.9c-14.9,1.1-29.4,2.1-44.3-1c-23.4-4.8-47-8.3-70.5-12.4c-2.3-0.3-4.6-1-6.7-1.9
	c-23.2-11.3-47-21.6-65.9-40.3c-3.8-3.7-6.8-8.1-10.9-11.5c-20.7-17.1-39.9-35.6-53.8-58.8c-10.4-17.3-20.7-34.6-28.5-53.3
	c-2.6-6.2-3.4-13.2-6.7-18.7c-6.5-10.8-8-23.1-12.6-34.4c-4.2-10.4-7.5-21.6-6.9-33c0.7-14.6-5.4-28.8-2-43.4
	c1.2-5.1-2.5-9.2-2-14.4c2-19.8,2-39.7,5.8-59.4c1.3-6.7,3.2-13.8,2.9-20.5c-0.6-13.8,4.8-25.8,8.7-38.4c0.7-2.2,1.8-4.2,1.8-6.7
	c-0.1-4.2-1.7-5.6-5.6-3.9c-4.8,2.2-9.2,5.1-13.9,7.7c-26,14.7-47.8,33.5-59.7,61.8c-4.4,10.4-9.7,20.4-12.7,31.4
	c-5.1,18.9-8.3,38.3-9.6,57.9c-1.2,15.9-2.7,31.8-2.3,47.8c0.7,24.1,6.4,47.4,10,71c1.3,8.5,3.4,16.9,6.2,25.1
	c6.3,17.8,14.1,35.2,20.4,53c8,22.4,21.2,41.3,37.4,58.3c14.9,15.7,29.7,31.4,44.5,47.1c13.7,14.5,26.6,29.8,43.3,41.1
	c9.1,6.1,17.8,12.9,27.3,18.3c9,5.1,15.6,13.4,25.6,17.1c11.1,4.1,21.9,9.3,32.8,14l3.4,0.9c3.9-0.8,7.9,0.4,10.6,3.3l3.1,0.3
	c2.5-0.6,4.8-0.8,6.5,1.7l3.7,0.3c6.1-0.6,12.1-0.7,17.6,2.6l6.5,2c5.3-0.9,10.1,0.6,14.8,2.9l3,0.4c10.1-1.2,20.2,0.6,30.3,0.4
	c2.5-0.7,5.1-0.8,7.6-0.4c3.9-3,8.2-2.7,12.6-1.7l6.1-1.8c1.5-2.1,3.5-2.5,5.8-1.8h0.2c9.5-4,19.2-7.2,29.8-6.3l3-0.8
	c4.3-3,9.3-3.2,14.2-3.8c14.1-1.8,28.1-4.8,42.4-5.5s27.8-6.3,41.7-9.4c13.5-3,25-9.4,36.8-15.7c15.9-8.5,28.8-21.3,43.7-31.3
	c14.1-9.5,25.7-22.2,39.2-32.3c17.2-12.8,27.6-30.2,36.7-48.6c6.3-12.8,11.8-26,16.5-39.5c3.8-10.6,7.2-21.5,13.2-31.2
	c1.1-2,2-4.2,2.6-6.5c4.3-13.7,7.1-27.7,10.3-41.6C721.6,468.3,720.6,462,720.8,455.7z"/>
<path class="st1" d="M275.7,582.4c0.1,0.1,0.2,0.1,0.2,0.2l0.1-0.2H275.7z"/>
<path d="M575.5,574.2c0.1,0,0.1,0,0.2,0c6.1-0.1,12-1.6,17.7-3.5c-4.7-0.9-9,1.4-13.4,2.4C578.5,573.4,577,574,575.5,574.2z"/>
<path d="M574.9,574.3c-0.5,0-1.1,0.1-1.6,0c-2.5-0.3-5.1-1.2-4.6-4c0.6-3.5,3.1-2.4,5.3-1.1s4.5,1.6,5.7-1.3
	c0.6-1.4,2.4-2.7,1.1-4.4c-1.5-2-3.6-2.2-6.1-2.3c-6.5-0.4-11.9,3.9-18.1,4l-2.4,1.3c-4.4,3.4-9.5,2.8-14.5,2.8l-3.8,0.3
	c-1.5,1.7-3.1,1.6-4.9,0.4l-11.2,0.6h-2.4l-7.5-0.1l-2.6,0.1H502c-2.1,1.2-4.6,1.2-6.6-0.1l-19.6,0.2c-0.7,1.3-1.4,1.4-2.2,0
	l-3.7-0.1c-1.5,1.8-2.9,2-4.3-0.1l-3.1-0.5c-10.6,1-21-0.5-31.2-3.5l-5-0.6c-0.1,0.1-0.3,0.3-0.5,0.3c-0.9,0.4-1.9,0-2.3-0.8
	l-3.9-0.1c-11,0.1-22.2,1.1-32-5.9c-26.9-7.1-53.3-16-79.6-24.9c-4.3,1.4-8.2-2.5-13-1c0.8,0.6,1.7,1.2,2.6,1.7
	c17.4,8.4,36.4,12.1,54.4,18.5c13.6,4.8,27.7,8.6,41.6,12.8c4.2,1.2,8.2,2.4,12.6,2.5c13.6,0.3,27.1,2.2,40.6,4.1
	c10.8,1.6,21.6,2.5,32.5,2.7c21.8,0,43.7-0.8,65.5-1.3c1.6,0,3.5-0.1,4.8-1c4.8-3.4,6.2-0.4,8,2.9c5.2-0.3,10.5-0.7,15.7-1.1
	C573.7,574.8,574.2,574.4,574.9,574.3z"/>
<path d="M548.4,576.8c1.8-0.1,3.6-0.2,5.4-0.3C551.9,576.1,550.1,576.3,548.4,576.8z"/>
<path d="M535.4,584.9c-0.8,0.5-1.6,0.9-2.4,0.5c-0.3-0.1-0.6-0.2-0.9-0.3c-3.2,0.2-6.4,0.4-9.6,0.5c-2.4,0.9-4.8,2.1-7.3,2.8
	c-9.4,2.8-19.2,4.3-29,4.6c-4,0.1-7.9,0.2-11,3.2c-1.9,1.8-3.1,2.8-1.5,6.4c2.9,6.2,1.7,7.4-4.7,11.2c-2.6,1.5-5.4,2.4-8.3,2.7
	c-18.7,2.6-37.3,5.9-56.1,8.1c-13,1.5-26.1-0.7-39.1-1.3c-7.1-0.3-14.2-4.6-22-4.3c-1.2,0-5.9-0.1-4.2-3.7c2.3-4.9-2.3-5.4-4-7.7
	c-21.2-5.3-41.3-13.1-59.6-25.1l0.3,0.2l-2.3-1.9c-0.1,0-0.2,0-0.3,0c-1,0-1.8-0.8-1.8-1.7l-0.2-0.1c-3.1-0.1-5.7-2.4-6-5.5
	l-0.6-0.4c-0.9,0.3-1.4,0-1.3-1c-0.1-0.4-0.5-0.7-0.9-0.9c-1.8,0.2-2.8-0.5-2.9-2.3l-0.1-0.1c-5-1.5-9.3-4.7-12.2-8.9l-3.2-2.6
	c-6.8-3.9-14.5-6.4-19-13.4l-0.6-0.6c-8-6.5-14.5-14.1-17-24.4v-0.1c-2.7-0.8-4.2-3.5-3.6-6.2c-0.1-0.7-0.6-1.2-1.2-1.5
	c-3.3,0.3-6.7-0.7-9.2-2.9c-5.4-4.4-10.7-8.9-15-14.5c-1.8-2.3-3.6-7.1-8.6-3c-1.4,1.1-5.3,0.1-6.6-3c-2.8-6.7-8.3-12.1-9.3-19.7
	c-0.3-2.1-3.7-5,1.9-5.7c2.1-0.2,0.2-3.6-0.7-3.8c-9.6-1.3-9.9-9.2-11.6-16c-0.9-3.5-2.5-6.4-6-7.3c-4.8-1-8.3-4.9-8.8-9.8
	c-2.4-17.3-9-33.9-8.7-51.6c0.1-3.9,0.3-7.9,0.3-11.9c0-8.6-1.7-17.1-0.9-25.9c1-10.5,1.4-21.2-2.4-31.5c-0.6-1.9-0.6-4-0.1-5.9
	c2.1-7,0.4-15,3.6-21.1c3.5-6.5-2-14.7,5.2-20.4c1.7-1.4,0.8-8,2.6-11.2c4-7.3,2.7-15.4,4.7-23c1-3.9-3.8-11.8-6.6-12.5
	c-2.8-0.7-8.4,5-8.4,9.7c0,8.5-3.7,15.9-5.8,23.8c-3.4,12.4-8.6,24.3-10.1,37.4c-0.7,6.3,0.2,12.6-0.7,18.7
	c-2.8,18.4-4.1,36.7,0.9,55c0.6,2.3,0.8,4.6,0.6,6.9c-2.4,20.5,4.7,39.3,12.1,57.5c3.9,9.5,6.3,19.4,10.1,28.9
	c2.7,6.8,4,14.6,9.2,20.2c3.9,4.3,6,9.5,8.5,14.5c3,5.9,6.3,11.5,9.7,17.2c4.9,8.2,11.4,15.3,16.4,23.3c8.2,13.2,19.1,24,30.1,34.2
	c8.5,7.8,16.3,16,24.6,24.1s17.3,15.7,27.9,20.3c7.5,3.2,14.7,7.3,21.9,10.9c8,4,15.9,8.4,24.6,9.3c21.2,2.2,41.7,8.2,62.9,9.8
	c11.2,0.8,22.2,3.6,33.5,2.7c4.3-0.3,8.5-1.9,12.8-1.8c11,0.3,22-1.3,32.7-2.8c10.2-1.5,21.2,1.1,30.7-4.9c22.4-3,44-9.3,65.5-15.8
	c4.5-1.4,6.2-5.4,10.8-6.6c15.3-3.9,28.3-12.6,40.9-21.6C570.6,582.7,553,583.9,535.4,584.9z M202.4,544
	c-9.5-5.1-15.5-12.5-19.9-21.4c-1.9-3.8-2.5-8.3-5-11.9c-0.7-0.7-0.7-1.9,0-2.6c1-0.9,2.6-1,3.7-0.2c0.8,0.5,1.4,1.3,1.8,2.2
	c3.9,11.1,11.6,19.7,18.7,28.7C202.6,539.8,203.1,541,202.4,544z M284.7,608.3c-3.1-2-5.9-3.9-9.9-4.1c-8.3-0.4-14-5.8-18.9-11.7
	c-2.3-2.8-3.1-6.5-7.7-6.8c-0.2,0-0.4-0.1-0.6-0.2c-1.1-0.5-1.5-1.8-1-2.9c0-0.1,0.1-0.2,0.1-0.3c0.7-1.1,2.1-1.5,3.2-0.8
	c3.1,1.9,6.1,4,8.9,6.4c5.6,5.1,11.1,9.7,19,4.3c0.9-0.6,1.5-0.4,2.3,0.5c7,8.3,18.1,10.5,26,17.5c0.7,0.7,1.3,1.4,3.1,3.4
	C299.4,615.5,291.7,612.8,284.7,608.3z M518.8,601.1c-0.2,2.4-0.7,4.8-3.7,5c-1.6,0.1-3.3,0-4.9-0.4c-3.3-0.9-6.5-1.7-9.4,1.4
	c3-6,7.5-9.1,13.8-8C515,599.1,519.1,597.7,518.8,601.1z"/>
<path d="M586,563.9c4.6-1.5,8.2,0.7,12.2,2.3c1.9,0.8,3.4,1.1,4.8,1c1-0.4,2.1-0.8,3.1-1.2c1.2-0.9,2.3-2.3,3.4-4.2
	c1.3-2.1,2.4-4,4.8-4.7c6.3-1.9,10.2-6.8,14.3-11.5l-2.4-2.5c-3.1,0.8-5.2,4.1-8.8,3.4l-4.5,2.1c0.2,0,0.3,0,0.5,0
	c-0.5,0.3-0.9,0.7-1.2,1.2c-0.5,1.6-1.5,2.5-3.2,2.1c-0.5,0.1-0.9,0.4-1.2,0.8c-3.1,4.1-7.1,6.4-12.5,5.6L592,559
	c-1.1,1.9-2.7,2.1-4.6,1.2c-1.3-0.1-2.6-0.2-3.6,0.8C584.5,562,585.6,564,586,563.9z"/>
<path d="M643.5,526.3c1.3-0.1,2.6-0.3,3.8-0.6c2.6-0.9,6.2-3.5,7.4,0.2c0.9,2.8-3.3,3.3-5.9,3.6c-1.4,0.1-2.5,1-3,2.3
	c-3,8.1-11,9.8-17.2,13.8l-2.4-2.5C631,536.5,639.2,533.5,643.5,526.3L643.5,526.3z"/>
<path d="M459,3.6c6.2-0.6,10.8-1.5,15.2,0.6c1.1,0.5,2.4,2,2.4,2.9c0,1.9-2,2.9-3.5,2.6C468.5,9,463.2,9.8,459,3.6z"/>
<path d="M660.1,512.9c3.4,1.2,5.6-3.2,9.2-2c1.4,3.2-1.4,4.5-3,6.3s-3,4.5-6.3,2.5C656.1,517.4,660.6,515.2,660.1,512.9L660.1,512.9
	z"/>
<path d="M92.1,189.1c-4.4,4.7-9,5.2-13.6,8.3C82.8,189.7,82.8,189.7,92.1,189.1z"/>
<path d="M427.7,740.6c3.1-2.7,6.6-1.3,10,0H427.7z"/>
<path d="M354.5,610.5c1,0,2.1,0.3,2.1,1.3c0,2.2-1.6,3.3-3.6,3.5c-1,0.1-1.4-1-1.4-2C351.6,611.4,352.6,610.5,354.5,610.5z"/>
<path d="M345.8,608.3l3.8,0.2c-0.1,2,1.9,5.4-1.8,5.4C344.5,613.8,345.6,610.5,345.8,608.3z"/>
<path d="M443.7,739.6c-0.8,0-1.1-0.5-1-1.2c0.1-0.2,0.5-0.4,0.8-0.4c0.8,0,1.1,0.4,1,1.2C444.4,739.4,444,739.5,443.7,739.6z"/>
<path d="M469.2,603.5c-0.5,0.3-1,0.9-1.4,0.9s-0.9-0.7-1.3-1c0.5-0.3,1-0.9,1.4-0.9S468.8,603.2,469.2,603.5z"/>
<path d="M137.1,213.7c-0.2,0.2-0.4,0.5-0.6,0.5s-0.4-0.3-0.5-0.5c0.2-0.2,0.4-0.5,0.6-0.5S136.9,213.5,137.1,213.7z"/>
<path d="M327.4,752.4c10.1-1.2,20.2,0.6,30.3,0.4c-4.1,4.2-9.3,2-14,2C338.3,754.7,332.9,753.2,327.4,752.4z"/>
<path d="M390,746.9c9.5-4,19.2-7.2,29.8-6.3C410.2,744.3,400.1,745.6,390,746.9z"/>
<path d="M285.6,744.4c6.1-0.6,12.1-0.7,17.6,2.6C297.2,746.6,291.1,747.9,285.6,744.4z"/>
<path d="M309.6,749c5.3-0.9,10.1,0.6,14.8,2.9C319.1,753,313.7,754.4,309.6,749z"/>
<path d="M365.3,752.4c3.9-3,8.2-2.7,12.6-1.7C374.1,754.3,369.7,753.1,365.3,752.4z"/>
<path d="M261.7,738.8c3.9-0.8,7.9,0.4,10.6,3.3C268.6,741.8,264.7,741.8,261.7,738.8z"/>
<path d="M275.4,742.4c2.5-0.6,4.8-0.8,6.5,1.7C278.7,747.7,277.7,742.7,275.4,742.4z"/>
<path d="M384,748.9c1.5-2.1,3.5-2.5,5.9-1.9C388.6,748.9,386.2,749.7,384,748.9z"/>
<path d="M395.4,448.6c2-0.7,2-2.3,1.6-3.9c-0.7-2.9-1.6-5.6-2-8.5c-0.5-3.5,0.2-6.7,4.4-7.5c3.4-0.6,6.6-0.4,7.8,3.8
	c0.5,1.6,0.8,3.2,2.3,4.2c0.2,1.2,0.4,2.4,0.6,3.5c-0.9,2.2-0.2,4.5-1.3,6.8c-2.1,4.5-1.2,8.4,3.8,10.6c1.9,0.9,2.9,2.6,4.1,4.2
	c2.3,3,5,5.4,9.1,4.9l0,0c-0.2,2,3.8,3.9,0.3,5.9c-1.9,1-3.9,2.3-6.2,0c-5.6-5.6-11.6-10.8-17-16.6c-1.9-2.3-4.8-3.5-7.8-3.3
	C395.1,451.2,395.3,449.9,395.4,448.6z"/>
<path d="M590.2,442.3c3.6,2.3,4.2,5.6,3,9.4c-3.5,10.4-15.5,16.3-26.2,14.1c-7.6-1.5-9.2-6.3-9.7-12.6c3.9,2.8,3.8,8.8,9.9,10.2
	C580.6,466.6,591.8,456.7,590.2,442.3z"/>
<path d="M425.8,466.6c-4.2,0.5-6.9-2-9.1-4.9c-1.2-1.6-2.2-3.4-4.1-4.2c-5-2.2-5.9-6-3.8-10.6c1-2.3,0.4-4.6,1.3-6.8
	c3.4,2.8,2.8,7.2,4.4,10.8C417.2,457,420.1,462.7,425.8,466.6z"/>
<path d="M643.5,526.3c-4.3,7.1-12.5,10.2-17.2,16.8c-3.1,0.8-5.2,4.1-8.8,3.4C625.5,539,633.6,531.6,643.5,526.3z"/>
<path d="M419.6,565.2c-11.1,0.2-22.3,1.1-32-5.9L419.6,565.2z"/>
<path d="M462.5,569.8c-10.6,1-21-0.5-31.2-3.5c1.6-2.2,3.5-0.8,5.3-0.3C445.2,567.9,454.1,566.9,462.5,569.8z"/>
<path d="M642.1,445.2c-0.1,1.6-0.5,3.7-1.9,4.2c-4.8,1.5-9.7,2.6-14.6,3.7c-0.6,0.1-1.4-1-2.1-1.6
	C629.1,447.9,636,447.8,642.1,445.2z"/>
<path d="M554.2,566.3c-4.4,3.4-9.5,2.8-14.5,2.8C544.1,566.6,549.2,565.7,554.2,566.3z"/>
<path d="M607.7,552.6c-3.1,4.1-7.2,6.4-12.5,5.6C599.1,555.8,602.9,553.1,607.7,552.6z"/>
<path d="M479.3,452.8c-3.5-2.1-4.4-5.2-2.9-9C478.8,446.4,478.7,449.7,479.3,452.8z"/>
<path d="M469.9,570.4c-1.5,1.8-2.9,2-4.3-0.1C467.1,568.7,468.5,569.2,469.9,570.4z"/>
<path d="M502,570.4c-2.1,1.2-4.6,1.2-6.6-0.1C497.5,569.2,499.9,569.3,502,570.4z"/>
<path d="M475.8,438.8c-1.1-1.4-2.1-2.9,0-4.4C476.9,435.9,476.6,437.4,475.8,438.8z"/>
<path d="M612.2,549.7c-0.5,1.7-1.5,2.5-3.2,2.1C609.4,550.2,610.7,549.8,612.2,549.7z"/>
<path d="M591.9,559c-1.1,1.9-2.7,2.2-4.6,1.2C588.5,559,590.2,558.5,591.9,559z"/>
<path d="M475.8,570.4c-0.7,1.4-1.4,1.4-2.2,0C474.3,569.5,475,569.5,475.8,570.4z"/>
<path d="M535.9,569.4c-1.5,1.7-3.1,1.6-4.9,0.4C532.4,568.7,534.4,568.5,535.9,569.4z"/>
<path d="M238.7,266.3c1-0.2,1.4,0.1,1.3,1.1C239,267.8,238.6,267.4,238.7,266.3z"/>
<path d="M236.7,264.3c1-0.1,1.5,0.3,1.3,1.3C237,265.8,236.6,265.4,236.7,264.3z"/>
<path d="M252.1,252.7c-0.5,0-0.7-0.3-0.6-0.8c0.2-0.1,0.5-0.3,0.6-0.3c0.2,0.1,0.4,0.3,0.4,0.5C252.5,252.4,252.2,252.5,252.1,252.7
	z"/>
<path d="M612.9,548.6c0.2,0,0.3,0,0.5,0H612.9z"/>
<path d="M426.4,565.7c-0.7,0.7-1.8,0.7-2.5,0c-0.1-0.1-0.3-0.3-0.3-0.5c0.7-0.7,1.8-0.7,2.5,0C426.1,565.4,426.3,565.5,426.4,565.7z
	"/>
<path d="M510,570.3l-2.6,0.1C508.2,569.3,509.1,569.2,510,570.3z"/>
<path d="M519.9,570.4h-2.4c0.5-0.7,1.5-0.8,2.2-0.2C519.8,570.3,519.8,570.4,519.9,570.4z"/>
<path d="M224.6,543.2c-8-6.5-14.5-14.1-17-24.4C213.9,526.4,220.6,533.8,224.6,543.2z"/>
<path d="M244.1,557.2c-6.7-3.9-14.5-6.4-19-13.4C232.2,547.2,239.4,550.6,244.1,557.2z"/>
<path d="M259.5,568.7c-5-1.5-9.3-4.7-12.2-8.9C252.2,561.7,257,563.7,259.5,568.7z"/>
<path d="M271.3,578.9c-3.1-0.1-5.7-2.4-6-5.5C268.5,573.9,270.1,576.2,271.3,578.9z"/>
<path d="M207.6,518.7c-2.7-0.8-4.2-3.5-3.6-6.2C206.6,513.7,207.6,515.9,207.6,518.7z"/>
<path d="M262.5,571.1c-1.8,0.2-2.8-0.5-2.9-2.3C261.1,568.9,262.4,569.2,262.5,571.1z"/>
<path d="M264.7,573c-0.9,0.3-1.4,0-1.3-1C264.5,571.5,264.9,571.9,264.7,573z"/>
<path d="M273.6,580.7c-0.9,0.2-1.9-0.4-2.1-1.4c0-0.1,0-0.2,0-0.3C272.8,578.8,273.5,579.4,273.6,580.7z"/>
<polygon points="275.7,582.5 275.9,582.6 276.1,582.4 "/>
<path d="M309.4,613.7c-10,1.8-17.6-1-24.7-5.5c-3.1-2-5.9-3.9-9.9-4.1c-8.3-0.4-14-5.8-18.9-11.7c-2.3-2.7-3.1-6.5-7.7-6.8
	c-1.2-0.2-2-1.3-1.8-2.5c0-0.2,0.1-0.4,0.2-0.6c0.5-1.2,1.9-1.7,3.1-1.2c0.1,0,0.2,0.1,0.3,0.1c3.1,1.9,6.1,4,8.9,6.4
	c5.6,5,11.1,9.7,19,4.3c0.9-0.6,1.5-0.4,2.3,0.5c7,8.3,18.1,10.5,26,17.5C307,611,307.6,611.8,309.4,613.7z"/>
<path d="M202.4,544c-9.5-5.1-15.6-12.6-19.9-21.4c-1.9-3.8-2.4-8.3-5-11.9c-0.7-0.7-0.7-1.9,0-2.6c1-0.9,2.6-1,3.7-0.2
	c0.8,0.5,1.5,1.3,1.8,2.2c3.9,11.1,11.6,19.7,18.7,28.7C202.6,539.8,203.1,541,202.4,544z"/>
<path d="M500.8,607.2c3-6.1,7.5-9.2,13.9-8.1c0.4,0.1,4.5-1.4,4.2,2c-0.2,2.4-0.7,4.8-3.7,5c-1.6,0.1-3.3,0-4.9-0.4
	C506.9,604.8,503.7,604,500.8,607.2z"/>
<path d="M542.9,451.3c-0.3-0.4-0.8-0.7-1-1.1c-0.4-0.8-0.1-1.9,0.7-2.4c0.1-0.1,0.9,0.6,1,1C544,449.7,543.7,450.8,542.9,451.3z"/>
<path d="M492.6,475.4c-0.3-0.4-0.9-0.8-1-1.2c-0.2-0.9,0-1.9,1.1-2.2c0.2,0,0.6,0.4,0.6,0.7C493.7,473.7,493.4,474.7,492.6,475.4z"
	/>
<path class="st1" d="M395.4,448.6c-0.1,1.3-0.2,2.6-0.4,4c-2.3,1.4-2.4,3.6-1.9,5.9l-0.7,2c-3,1.5-2.8,6.1-7.3,7.1
	c-1.7-7.8,1.1-13.9,6.2-19.5C393.2,446.1,394.2,447.8,395.4,448.6z"/>
<path d="M392.5,460.4l0.7-2c2.4-0.6,4.4-3.3,7.8-1.3c-1.5,4.8-2.9,9.7-4.6,14.5c-0.5,1.5-1.8,3-3.7,1.9c-1.3-0.8-0.9-2.3-0.8-3.6
	C392.1,466.7,397.2,463.9,392.5,460.4z"/>
<path d="M384.7,474.4c-1.9,1.5-4.6,1.3-6.2-0.4c-2-1.9-2-4.6-0.1-6.1c2.4-2,3.2,0.7,4,2.4C383,471.6,384.9,472.3,384.7,474.4z"/>
<g class="create-table-button">
	<path d="M237.7,120.4c-3.3,7.8-6.4,15.8-10,23.5c-6.1,12.8-7.8,27.2-4.9,41c1.5,7.4,2.4,15.1-2.1,22c-0.7,1.1-1.9,2.4-1.2,3.6
		c5.3,9.6-1.5,21,5,30.7c2.3,3.4,3.2,7.9,6.1,11.1c2.7,2.9,4.5,6.5,5,10.4c-12.5-9.4-16.3-23.7-19.6-37.6c-4.6-18.7-4.7-38.2-0.4-57
		c3.6-15.4,10.1-30,17.8-43.9C234.4,122.7,235.5,120.9,237.7,120.4z"/>
	<g>
		<path d="M568.3,334.5c3.6,7.5,1.9,13.6,0.8,19.6c-0.3,1.6-1.8,2.6-3.3,2.3c-0.1,0-0.3-0.1-0.4-0.1c-1.5-0.4-1.4-1.8-1.4-3.2
			C563.7,346.7,565.2,340.3,568.3,334.5z"/>
		<path class="st1" d="M518.2,242.1c0-10.4,1.9-20.2,8.7-29.7c3.5,5.7,4,11.6,3.7,17.1C530.1,236.3,521.9,237.1,518.2,242.1z"/>
		<path class="st1" d="M460.6,222.2c-0.2-7.7,3.2-12.7,5.7-18.1c1.2-2.6,3.6-2.4,6-1.7c2.6,0.9,2.3,2.6,1.8,4.8
			c-1.7,7.7-3.1,15.5-4.9,23.1c-0.5,2.1-1.9,4.5-4.8,4c-2.6-0.5-2.1-2.9-2.5-4.8C461.4,226.7,460.9,223.8,460.6,222.2z"/>
		<path d="M747.4,293c-0.9-21.6-3.3-43.1-7.4-64.3c-4.7-25-8-49.9-19.3-73.3c-5.7-11.8-13.3-21.9-20.3-32.5
			c-4.9-7.5-11.8-13.4-17.6-20.2c-7.7-9-16-17.8-25.9-24.8c-18.5-13-39.5-21.5-59.3-32.2c-17.4-9.4-36.1-16.5-54.2-24.7
			c-7.3-3.2-15.2-5.6-21.7-10c-7.5-5.2-15.9-7.3-24.3-7.9c-23.7-1.8-47.6-6-71.3,0.4c-1.6,0.3-3.3,0.4-5,0.2
			C411.3,3,401.8,5,392.4,6.9c-12.3,2.4-24.3,6.4-36.9,7.9c-1.7,0.2-3.2,0.8-4.7,1.7c-5.2,3.2-11.1,4.3-16.6,6.7
			c-13.4,5.7-27.7,9-40.9,15.5c-8.3,4.1-17.2,7.2-24.6,12.5c-9.6,6.9-18.1,15.2-26.6,23.5c-3.6,3.6-7.1,7.1-11.4,9.6
			c-6.4,3.6-11.8,8.6-15.8,14.7c-6,9-13.5,16.7-21.4,23.7c-4.8,8-7.6,16.8-9.5,26c0.2,1.1,0,2.2-0.5,2.9c-0.3,2-0.6,4-0.9,6
			c0.1,0,0.1,0,0.2,0c0.1,0,0.2,0,0.3,0c1.9,2.9,0.3,5-0.7,6.9c-5,9.8-7.5,20.6-11.9,30.6c-1.6,3.4-0.8,7.3-1.6,10.8
			c-1.9,8.4-2.6,17.2-7.7,24.5c-2.9,4.2-1,9.1-2.1,13.6c-5.9,24-6.7,48.1-5.2,72.9c1.4,24,7.1,47.2,10,70.8
			c0.7,5.5,3.3,10.7,5.1,16.1c7.5,22.3,20.4,41.3,35.2,59.5c6.2,7.6,11.4,16.1,17.4,24c4.9,6.3,10.3,12.1,16.3,17.3
			c6.2,5.5,12.6,10.8,18.9,16.1c11.7,9.9,25.6,16.9,40.5,20.5c11.5,2.8,23.1,5.8,33.8,11.4c3.3,1.6,6.8,2.8,10.3,3.6
			c17.3,4.4,34.5,9.2,51.7,14.3c7.6,2.2,15.5,3.6,23.4,4c18.9,1.1,37.7,3.6,56.5,5.9c4.9,0.6,9.9-0.3,14.9-0.8
			c5.9-0.5,11.8,0.2,17.7,0.9c0.6-0.7,1.4-1.1,2.5-1.2c13.4-0.7,26.9-1.4,40.3-2.2c1.6-0.5,3.4-0.7,5.3-0.3c1.3-0.1,2.6-0.2,3.9-0.2
			c-1.8-3.3-3.2-6.3-8-2.9c-1.2,0.9-3.1,1-4.8,1c-21.8,0.5-43.7,1.3-65.5,1.3c-10.9-0.2-21.8-1-32.6-2.7c-13.5-1.9-27-3.8-40.6-4.1
			c-4.4-0.1-8.5-1.3-12.6-2.5c-13.9-4.1-28-7.9-41.6-12.8c-18-6.4-37-10.1-54.4-18.5c-0.9-0.5-1.8-1.1-2.6-1.7c4.7-1.5,8.7,2.4,13,1
			c-2.5-2.6-6-2.9-9.2-3.5c-19.4-3.5-34.7-14.1-48.8-27.2c-14.4-13.5-27.8-27.6-38.9-44c-7.4-11-16.4-20.9-23-32.5
			c-7.3-12.8-14-25.8-16.6-40.4c-5-27.8-10-55.6-11.1-84.1c-0.8-20,1.9-39.1,6.5-58.2c2.2-9.1,4.2-18.2,6.1-27.3
			c4.8-23.3,13.5-45.2,24.7-66.1c7.5-14,13-29.2,23.7-41.4c6.2-7,12.3-13.8,19.9-19.5c9.8-7.3,19-15.5,28.6-23.1
			c9-7.3,19.2-13.1,30.1-17.2c10.3-3.8,20.2-8.8,30.4-12.4C342.7,33.2,355,28,368,25.4s26.3-3.8,39.3-6.2c16.1-3,32.2-7.6,49.2-6.6
			c16.5,1,33.3-1,49.6,3.2c2.6,0.7,5.3,0.9,7.7,2c20.2,9.1,40.3,18.6,60.6,27.5c18.6,8.1,36.2,18,54.8,26.3
			c17,7.5,31.8,19.3,44.3,33.5c5.1,5.7,10.3,11.3,15.3,17.1c15.8,18.4,27.5,39.3,33.9,62.5c7.2,26.2,10.7,53.4,13.9,80.4
			c3.7,30.8,3.1,61.9-1.7,92.5c-1.9,11.8-5.4,23.3-8.6,34.8c-3.5,12.5-7.6,24.7-11.3,37.1c-1.5,5.2-4.9,9.4-7.2,14.2
			c-5.9,12.3-13.3,23.8-21,35c-3,4.4-5.7,8.9-8.2,13.6c-2.6,5-6.3,9.5-10.7,13c-2.8,2.2-6.2,4-7.7,7.5c3.4,1.1,5.6-3.2,9.2-2
			c1.4,3.3-1.4,4.4-3,6.3s-3,4.5-6.3,2.5c-3.8-2.3,0.6-4.5,0-6.7c-6.5,3.2-11.1,8.7-16.5,13.3c1.3-0.1,2.6-0.3,3.8-0.6
			c2.6-0.9,6.2-3.5,7.4,0.2c0.9,2.8-3.3,3.3-5.9,3.6c-1.4,0.1-2.5,1-3,2.3c-3,8.1-11,9.8-17.2,13.8c-4,4.7-8,9.5-14.2,11.4
			c-2.4,0.7-3.5,2.6-4.8,4.7c-1.2,2-2.3,3.4-3.5,4.3c4-1.5,8-3,12.1-4c4.3-3.5,8.8-6.7,13.8-9.4c6.4-3.5,11.3-9.2,17-13.7
			c17.7-13.9,35.4-27.7,46.1-48.7c4.8-9.4,10.9-18.1,15.8-27.6c0-0.3,0-0.7,0-1.1c0.9-4.6,2.4-9,4.3-13.2c-1.3,2.2-2.7,4.5-4.1,6.7
			c-0.8,1.2-2,1.9-3.2,0.9c-0.6-0.7-0.9-1.7-0.7-2.6c0.6-2.5,1.1-5.3,2.6-7.3c5.1-6.8,7.8-14.8,11.5-22.3c1.6-3.4,3.1-0.6,4.6-0.9
			c5.5-2.9,3.6-8.7,5.3-13.1c5.4-14.3,9.2-29.1,12.2-44C748.5,341.6,748.3,317.3,747.4,293z M473,9.8c-4.5-0.8-9.9,0-14-6.2
			c6.2-0.6,10.9-1.5,15.2,0.6c1.1,0.5,2.4,1.9,2.4,2.9C476.5,9,474.5,10,473,9.8z"/>
		<path d="M715.4,448.2c2.2-4.7,4.9-9.2,7.9-13.4v-0.1c-1.5-2.2-2-4.2,1-5.7l1.8-6.3c-1.5,0.3-3-2.5-4.6,0.9
			c-3.6,7.5-6.3,15.5-11.5,22.3c-1.5,2-2,4.8-2.6,7.3c-0.2,0.9,0.1,1.9,0.7,2.6c1.2,1,2.5,0.3,3.2-0.9
			C712.6,452.7,714,450.4,715.4,448.2z"/>
		<path class="st1" d="M481.3,401.4c0,0.1,0,0.1,0,0.2l0.7,0.1L481.3,401.4z"/>
		<path class="st1" d="M615.6,207.7c-0.1-1-0.7-1.1-1.3-0.4c-0.4,0.5-1.1,0.9-1.2,1.5c-0.1,0.2-0.1,0.4-0.1,0.6
			c0.5-0.1,1-0.3,1.6-0.6C614.9,208.6,615.6,208.1,615.6,207.7z"/>
		<path class="st1" d="M715.6,228.4c-0.5,0.1-0.9,0.2-1.3,0.5c0.4,0.1,0.8,0.2,1.3,0.3c0.8,0.1,0.9,0.8,0.9-0.5
			C716.6,227.4,716.4,228.3,715.6,228.4z"/>
		<path d="M305.2,85c3.3,1.5,6.7,3,10,4.6c1.9,0.9,3.7,1.6,5.5-0.1c1.5-1.5,0.6-3,0.1-4.6c-1.6-5-3.5-10-4.9-15.2
			c-0.7-2.6-3.4-6.3,0.8-7.8c3.2-1.1,4.7,2.2,6.2,5c5.2,9.7,8.6,20.1,11.9,30.5c0.7,2.6,1.7,5,3.1,7.3c3.4,5.2,6,10.2,3.6,16.7
			c-0.7,1.8,0.8,4.5,1.3,6.7c0.4,1.7,0.7,3.6-1.4,4.2c-1.6,0.5-3.5,0-4.5-1.4c-1.2-1.6-2.2-3.3-3-5.1c-2-5.1-5.9-8.4-9.9-12.1
			c-10.8-10.1-21.5-5.3-32.3-1.2c-16.8,6.4-26.5,20.3-36.2,34.3c-3.1,4.4-4.2,9.9-5.5,14.8c-5.1,18.9-9.8,37.8-8.9,57.8
			c0.5,12.2,3.8,22.8,10.5,32.6c-0.1,0.5,0.1,0.8,0.6,0.8l1.7,1.9c2.2,3.8,6,3.6,9.7,3.7c7,0.1,14,0.1,20.9,0.1
			c9.6,0.1,17.1-5.7,25.7-8.3c4.6-1.4,9.4-5.6,14.5-8c4.6-1.9,8.5-5.1,11.3-9.2l0.1-0.1c6.3-0.7,8.2-7.5,13.6-9.5
			c8.7-3.2,15.5-10,24.3-13.1c0.7-0.2,1.3-0.2,2,0c0.8,1.4,0.8,1.4,1.6,0l0,0c8,3.2,13.6,0,17.1-7.5c2.6,2.3,4.5,4.2,6.5,5.7
			c2.4,1.8,2.9,4,2.5,7c-1,8-6,11.9-14.2,10.3c-11.9-2.4-23.1,1.6-31.4,8.4c-7.9,6.3-15.9,12.7-23.9,19c-5.5,4.4-10.9,9.9-18.4,11
			c-4.8,0.7-9.5,2.4-13.6,5c-3,2-5.8,1.9-9.2,1.8c-4.6-0.1-10.6-3.6-13.6,3.5c-0.8,1.8-2.6,1.3-4.3,1.1c-5.3-0.4-10.5-1.2-15.6-2.4
			c-6.2-1.6-12-5.1-18.7-4.9l-0.6-0.7c0.1-1-0.3-1.4-1.3-1.1c-0.3-0.1-0.6-0.3-0.7-0.7c0.1-1-0.3-1.5-1.3-1.3
			c-0.6-0.3-1-0.8-1.1-1.4c-0.5-3.9-2.3-7.6-5-10.4c-3-3.2-3.9-7.7-6.1-11.1c-6.5-9.7,0.3-21.1-5-30.7c-0.7-1.2,0.5-2.5,1.2-3.6
			c4.6-7,3.6-14.6,2.1-22c-3-13.9-1.3-28.4,4.8-41.2c3.6-7.7,6.7-15.7,10-23.5c0.1-0.5,0.5-1,0.9-1.3c2.8-0.5,3.3-3.1,4.3-5
			c8.9-16.2,23.7-23.8,40.7-28.7C290.9,83.3,298,85.6,305.2,85z M273.9,102.9c-0.4-0.5-0.8-1.2-1.3-1.4c-1.2-0.7-2.6-0.7-3.8,0
			c-8.6,5.1-16.7,10.5-20.7,20.4c-2.6,6.4-5.5,12.7-10.2,18.1c-8.1,9.5-8.2,21.2-7.7,32.9c0,0.8,1.1,1.4,3.6,4.4
			c1.1-16.2,7.2-28.7,12.2-41.7C251.7,121.1,265.1,114.1,273.9,102.9L273.9,102.9z"/>
		<path d="M240.7,268.1c6.7-0.2,12.5,3.3,18.7,4.9c5.1,1.2,10.3,2,15.6,2.4c1.7,0.2,3.5,0.7,4.3-1.1c3-7.1,9-3.6,13.6-3.5
			c3.5,0.1,6.2,0.1,9.2-1.8c4.1-2.6,8.8-4.3,13.6-5c7.5-1.1,12.9-6.5,18.4-11c7.9-6.4,16-12.7,23.9-19c8.4-6.7,19.5-10.7,31.4-8.4
			c8.1,1.6,13.1-2.3,14.2-10.3c0.4-2.9-0.1-5.1-2.5-7c-2.1-1.6-3.9-3.4-6.5-5.7c-3.6,7.5-9.1,10.7-17.1,7.5c0.6-0.7,1.2-2,1.9-2.1
			c8.9-1.1,8.9-1.1,10.1-9.2c0.3-2,0.2-4,0.6-5.9c1.1-6,3.7-6.8,10.3-3.1c-3,0.7-5.7,1.6-5.5,5.7c0.1,3.1,1.4,4.8,4,6.2
			c4,2.1,8.1,2.6,12.4,2.8c8,0.2,12,5.2,10,12.8c-1.3,4.1-1.5,8.4-0.6,12.6c0.4,1.7,2.7,6.6-3,6c-2.2-0.2-1.9,1.3-2,2.4
			c-0.5,3.6,0,6.4,4.5,7.3s4.9-2.4,5.7-5.1c2.5-7.9,3.3-16.2,4.9-24.3c2.4-12.1,2.5-12.3-7.3-18.5c3.8-0.6,7.4-0.1,9.4,3.7
			c2.8,5.3,5.5,11.4,2.9,16.8c-5.1,10.8-2.7,22.1-3.4,33.1c-0.5,8.1,6.1,10.6,12.9,5.8c8-5.6,9.1-9.5,6.2-19.2
			c-1.5-5.1-2.6-10.2-5.3-14.9c-1.8-3.1-0.8-6.2-0.2-9.4c0.8-4.7,6.2-9.4,0-14.3c-1.5-1.1,0.5-0.5,0.6-0.5c5.6-0.2,4.9-6.7,8.8-8.6
			l1.1,0.9c-0.2,3.7-1.4,7.2-3.3,10.3c-1.8,2.6-2.4,5.3-3,8.3c-2.1,10.6,2.1,20,5.4,29.5c1.5,4.2,3.8,8.4,0.8,12.2
			c-4.6,5.8-9.1,11.9-15.8,15.7c-2.5,1.4-5.4,2.1-7.6,0.8c-5.2-2.9-8.4,0.2-12.3,2.6c-1.5,0.9-3,1.1-2.8,3.3c0.1,1.7,1.3,3.2,3,3.6
			c9.2,2.1,18.1,1.9,26.2-3.8c5.2-3.5,10.2-7.4,14.9-11.4c3.2-2.8,6-3.4,9.8-1.5c6.6,3.1,13.4,2.8,20.4,0.6
			c7.9-2.5,15.9-4.2,24.2-2.4c2.7,0.6,5.2-0.6,7.6-1.8c5.5-2.5,10.1-6.7,13-12c2.3-4.3,4.7-5.5,9.5-4.3c13.5,3.4,25.7,1.8,33.6-11.6
			c0.5-0.9,1.2-1.6,2.1-2.2c3.8-2.7,4.4-6.4,3.7-10.6l-0.1,0.1c3.1,2.1,6.1,3.9,6.8-2c0.7-6.8,1.3-13.7,1.9-20.5
			c2.8,3.6,4.6,7.9,7.9,11.2c3.6,3.5,7.1,5.8,12.2,3.5c0.5-0.2,1.2-0.8,1.1-1.1c-0.1-1-0.7-1.1-1.3-0.4c-0.4,0.5-1.1,0.9-1.2,1.5
			c-0.5,1.3,0.1,2.7,1.4,3.3c5.2,2.4,10.4,1,15.5-0.8c2.1-0.8,2.3-3.2,2.2-5.1c-0.1-3,0-6.2-1.2-8.8c-3.3-7.6-0.1-14.6,1.5-21.5
			c1.2-5.5,6.3-8.3,11.9-8.7c5.4-0.5,10.6,2.1,13.5,6.7c1.7,2.7,3.4,5.8,2.1,9.3c-3.4-1.7-3.3-5.6-5.1-8.3
			c-4.1-6.2-10.6-6.9-15.9-1.6c-5.5,5.5-7.5,12.1-6.5,19.8c0.9,6.2,2.7,12.2,5.3,17.9c0.9,2.1,2,5.2-1.8,5.3
			c-7.2,0.1-12.4,6.1-19.5,6.4c-1.1,0-1.9,1.6-1.4,3.7c3.3,0.3,6.9,1,10.5,0.8c14.6-0.6,29.2-2.3,43.3,3.8c1.5,0.6,3.3,0.4,4.9,0.7
			c11.3,2.5,22-2.2,33.3-2.2c0.6-4.7-0.1-9.6-1.9-14c1.5-0.1,2.4,0.8,3.3,1.8c3.1,3.5-0.3,10.8,7,11.9c0.8,0.1,0.9,0.8,0.9-0.5
			s-0.1-0.4-1-0.3c-3.5,0.6-4.7,5.5-8.3,4.9c-8.5-1.3-16.5,1.6-24.5,3c-11.3,2-21.9,0.4-32.3-2.1c-5.3-1.3-9.8-1.7-14.2,0.9
			c-10.7,6.2-21.3,6.4-32.3,1c-3.6-1.7-8-2.1-11.1-4.3c-5.3-4-8.5-1.1-12.1,2.1c-2.2,2-4.2,4.2-6.3,6.3c-8,7.8-16.8,10.2-27.2,5.4
			c-3.9-1.8-6-0.3-8.1,3.1c-6.4,10.7-15.9,15.8-28.5,14.2c-4.7-0.6-9.2,0.4-13.6,1.9c-8.3,2.9-16.7,4.9-25.1,0.6
			c-3.1-1.6-5.6-0.9-8.2,1.3c-4,3.4-8.3,6.6-12.5,9.9c-8.8,7-18.7,7.8-29.3,5.2c-5.4-1.4-8.7-4.9-10.4-9.8
			c-4.1-12.1-3.1-24.2,0.9-36.1c1.6-4.6,4.1-9,1.8-13.8c-1.9-0.7-3,0-4.1,0.8c-8.1,5.4-16.1,8.7-26.7,7.4
			c-9.2-1.2-18.2,3.4-25.7,9.1c-9.8,7.4-18.8,15.7-28.6,23.1c-12,9-25.2,13.5-40.1,15.6c-15.1,2.1-29-0.3-43-4.9
			C243.2,272.2,241.1,271.3,240.7,268.1z M413.2,208.6c-3.3,1-2.9,3.9-3,6.4c-0.1,3,0,6.7,3.9,6.6c3.6-0.1,4.1-3.8,4.2-6.7
			C418.4,211.5,416.6,209.4,413.2,208.6z"/>
		<path d="M252,354.7c6.1-0.7,9.1,2.6,11.3,6.2c4.5,7.3,2.3,24.1-3.6,30.7c-5.6,6.3-14.3,7.1-20.3,1.4c-8.6-8.2-15.4-17.5-15.7-30.1
			c-0.2-2.6-0.9-5.2-2.2-7.6c-3.8-8.1-1.3-13.3,5.8-18.6c14.6-11.1,31.3-11.7,48.2-11.1c12.9,0.4,25.8,2.1,38.6,3.9
			c13.5,1.8,27.1,0.4,40.7-2c10.4-1.9,20.6-4.9,30.5-8.9c7.9-3.2,7.9-3.1,13.7,4.1c1.2,1.5,3.1,2.6,4.1,4.3c1.4,2.2,1.5,4.4-2,5.1
			c-13.3,2.8-25.9,8-39.2,10.5c-17,3.1-34.1,3.2-51.2,1.4c-14.9-1.6-29.7-3.7-44.7-3c-14.2,0.7-24,9-30.8,20.6
			c-3.6,6.1,0.8,13.8,7.7,15.4c2.9,0.7,5.1-0.4,7.1-2.5C255.1,369.2,255.8,364.8,252,354.7z"/>
		<path d="M239.3,457.1c6.7-2.3,13.7-3.6,20.8-3.7c17-0.3,34.8,2,50.7-6.9c1.2-0.6,2.4-1.1,3.7-1.4c2.4-0.6,4.7-0.1,6.2,2
			c1.3,1.8,0.7,3.8-0.2,5.7c-1.8,3.8-4.9,6.2-8.5,8.1c-9.1,4.9-19,5.5-29,5.7c-4.1,0.1-10-2.2-11.7,2.4c-1.9,5,4.6,6.1,7.6,8.8
			c8.7,7.5,19.3,10,30.1,12c6.5,1.2,12.6-0.3,18.5-2.8c4.5-1.9,5.9-5.5,6.1-10.4c0.2-9-1.5-17.9-2.4-26.8
			c-1.4-14.2-1.9-28.6-6.2-42.3c-4.6-14.6-7.5-29.5-10-44.5c-0.3-1.6-1.6-3.2-0.5-4.8c0.9-1.4,2.1-2.5,3.6-3.2
			c1.6-0.6,3.4,0.2,4,1.9v0.1c1.3,3,3,6.1,3.6,9.3c4.2,25.9,12.1,51,16.2,76.9c2.1,13.1,3.1,26.3,3.2,39.6c0,6.3-1.7,12.6-4.9,18.1
			c-3.4,6-8.3,7.9-15.1,6.6c-2.6-0.5-4.9-2.2-7.7-1.8c-21.8,3-37-9.2-50.7-23.2C258.3,473.9,250.7,464.3,239.3,457.1z"/>
		<path d="M475.8,438.8c0.2,1.7,0.4,3.4,0.6,5c-1.5,3.8-0.6,6.8,2.9,9l0.1,0.2c0.4,4.6,3.1,6,7.4,5.2c2.8-0.5,5.2-2.8,8.4-2.1
			c0.3,0.2,0.6,0.4,0.8,0.7c-2.4,5.5-8.2,8.1-11.5,15.7c-2.9-7.8-8.4-11.1-11.7-16.4c-1-1.7-2.7-3.2-4.9-2c-2,1.1-2.4,3-1.6,5.1
			c-0.3,1-0.7,2.1-1,3.1c-2,2.1-4.6,3.9-6,6.4c-2.7,5-6.7,6.8-12.1,6.8c-1.8,0-3.9,2.1-5.1-0.4c-1.1-2.2,0.8-4,2.5-4.7
			c10.2-3.8,12.2-14,17.4-21.7c2.2-3,2.6-6.9,1.1-10.3v-3.8c3.5-5.6-1.3-9.4-3.1-13.8c-4.4-22.5-5.8-45.3-5.6-68.2
			c0.1-12.4,2.2-24.5,4.3-36.6c1.1-6.4,5.9-11.7,7.4-18.3c0.7-3.1,6.1-2.5,7.8,1.1c5.6,11.5,12.3,22.6,11.3,36.2
			c-0.8,10.9-1.1,21.9-1.7,32.8c-3.9,2.3-1.8,6.2-1.7,9.1c0.2,7.1-3.6,14.1-0.4,21.3c0,1,0,2,0.1,3V401c0,0.4-0.1,0.8-0.4,1.1
			c-1.8,1.2-1.7,2.8-0.9,4.6c-0.1,3.2-0.3,6.5-0.4,9.7l-0.6,0.5l0.3,0.8l-0.4,2.4c-1.8,3.4-3.4,6.9-2.6,11l-0.6,3.1
			C473.6,436,474.7,437.4,475.8,438.8z M470.1,318.2c-8,30.2-7.5,60.3-1.4,91.7c3.5-9.4,6.8-69.4,5-84.9
			C473.5,322.6,473.9,319.5,470.1,318.2L470.1,318.2z"/>
		<path d="M549.8,424.6c0.2,0.5,0.3,1.1,0.2,1.6c0.7,8.6-0.4,17.8,6.2,24.9c0.3,0.7,0.6,1.4,0.9,2.1c0.5,6.2,2.1,11.1,9.7,12.6
			c10.8,2.1,22.7-3.8,26.2-14.1c1.3-3.8,0.6-7.1-3-9.4c-0.5-0.4-0.7-1-0.5-1.6c-1-12.3-1.7-24.7-3.1-37c-0.7-6.1,4.3-8.4,7.9-6.5
			c4.4,2.3,9.5,4.1,12.5,9.2c-1.7,0.3-2.6,0.6-3.5,0.7c-8.3,0.8-9.2,1.9-8.5,10.5c0.3,2.3,0.3,4.6-0.1,6.9
			c-1.8,7.4,0.1,13.4,5.7,18.4c1-0.1,1.8-1.1,1.6-2.1v-0.1c-0.3-2.6,1-4.1,3.2-3.6c2.1,0.5,2.8,2.7,2.7,4.8c-0.2,1-0.6,1.9-1.2,2.6
			c-2.9,4.3,0.2,6,3.4,7.3s6.3,2,9.4-0.2l3.8-0.2c0.7,0.6,1.6,1.7,2.1,1.6c4.9-1.1,9.8-2.2,14.6-3.7c1.4-0.5,1.8-2.5,1.9-4.2
			c0.4-0.4,1-0.7,1.6-0.6c6,1.5,9.2-2.8,12.6-6.2c1.8-1.8,2.8-4.5,3.8-7c1.2-2.9,3-1.9,4.8-1c2,0.9,3.9,2.4,0.9,4s-0.8,2.1,0.2,3
			c1.7,1.6,2.3,3.6,0.8,5.3c-3.4,3.9-5.8,9.6-12.2,9c-3.6-0.3-4.1,1.3-5,4.3c-1.9,6.1-9.2,9-15.1,5.8c-4.9-2.6-9.6-1.6-14.3-0.7
			c-4.9,1-9.2,1.7-13.8-2s-7.3-3-10.7,1.8c-2.8,3.8-5.8,8-9.9,9.6c-5.1,1.9-10.4,10.1-16.7,1.5c-1.2-1.6-3,0.5-4.5,0.7
			c-4.3,0.3-8,0.4-9.8-5.4c-1.2-3.7-4.5-6.6-3.5-11.3c0.4-1.6-1.1-3.8-2.1-5.4c-1.2-2-7.1-14.1-7-15.9c0.2-6.9-0.7-12.9-9.3-14.2
			c-0.7-0.1-1.3-1.4-1.9-2.2c1.5-2.4,5.9-2.2,5.4-6.3l0.6-0.6c4.4-0.7,3.9-4.8,3.6-7.1c-1.8-14,1.2-28.1-1-42.1
			c-1.9-12.6,1.3-25.1,0.2-37.7c-0.2-3-0.3-6.1,3.2-7.5c4.1-1.6,4.6,2.9,6.9,4.2c-0.2,3.9-0.2,7.8-1.4,11.5
			c-0.7,0.3-1.1,1.1-0.8,1.8c0.1,0.2,0.2,0.5,0.5,0.6c-0.1,1.8-0.2,3.7-0.3,5.5c-4.9,2.5-2.4,5.5-0.5,8.4v3.5
			c-2.1,2.2-1.7,4.4,0.1,6.6l-0.1,3.6c-1.3,0.8-1.3,1.6,0,2.4l0.1,5.6c-1.7,4.8-2.2,9.6,0,14.5v3.6c-1.5,11.3-1.5,11.3,6.3,14.1
			c0.2,3.3,0.3,6.5-2.1,9.4s-3,5.8-1.5,9.2c0.1,0.5,0.1,1.1-0.2,1.6C548.5,423.3,548.2,423.9,549.8,424.6z"/>
		<path d="M455.3,190.2c6.4-10.3,13.7-12.3,23.7-6.7c10,5.4,15.1,16.8,12.6,27.9c-2.1,9.9-4.4,19.8-6.8,29.6c-1,4.1,0.6,6.5,4.1,7.8
			s7.3,0.1,8.1-3.5c2-8.5,5.8-16.4,7.6-24.7c0.8-3.6,1-6.1,4-8.8c2.2-1.9,6.5-4.8,2.2-9c-0.9-0.9-0.5-1.7,0.4-2.5
			c4.8-4.1,9.7-8.3,16-9.3c8.7-1.4,14.2,2.4,15.7,11.1c1.2,6.9,4.7,12.9,6.1,19.7c1.2,6.1,5.8,8,11.4,5.1c8.1-4.2,15.1-9.2,16-19.8
			c0.8-9.2,6.3-17.5,5.1-27.2c-0.2-1.3,0-2.7-0.2-4c-0.7-6.1-3-8.1-8.4-5.7c-4.7,2-9.1,1.1-13.7,1.4c-4.1,0.3-6.7-2-8.4-5.8
			c-2.7-6-2.1-7.8,4.3-10.1c3.4-1.3,7-2.2,10.3-3.8c6.2-2.9,10.7-7.4,12.8-14.4c2-6.5,5.1-12.6,5.7-19.7c0.4-4.9,4.1-5.6,7.9-2.2
			c3,2.7,4.7,6.5,4.7,10.6c0.2,5.3,0.6,10.6,1.3,15.8c0.8,6.1,1.9,6.6,7.8,5.9c13.5-1.7,27.2-2.2,40.1-7.1c2.5-1,5.3-0.9,6.8,2.2
			c-4.5-0.9-8.5,0.7-12.4,2.5c-2.1,0.9-4,2.3-6.4,2.6c-10.2,1.1-20.4,2.4-30.7,3.4c-6.2,0.6-7.6-0.4-8.4-6.9
			c-0.7-5.6-0.5-11.3-0.9-16.9c-0.3-4.7-1.2-9-7.8-11.1c-0.1,7.1-1,14.2-2.5,21.2c-0.8,4.6-3.4,8.6-7.4,11
			c-5.8,3.8-12.1,6.8-18.7,8.9c-3,1-4.2,3.1-3.9,6.1c0.3,2.9,2.6,3.7,4.8,4.3c3.9,1.1,8,0.7,11.6-1.2c4.2-2.3,8.5-3.6,13.8-2
			c1.4,13.1-0.8,26.2-1.2,39.4c0,0.8,2.7,11.9,3.2,12.4l0.1-0.1c-4.2-0.4-8.2,0.2-10.8,3.7c-7.1,9.6-17.2,12.1-28.8,13
			c1.2-9-0.5-16.5-6.6-22.7c-1.8-1.9-1.8-4.3-1-6.6c1.7-5-1.7-7.5-5.1-9.4c-4.1-2.4-8-2-11.5,1.9c-2.5,2.6-4.7,5.5-6.5,8.7
			c-6,11.8-12.4,23.5-13.8,37.1c-0.6,5.7-4.2,8.7-9.5,10.2c-2.2,0.6-4.4,1.3-6.7,1.8c-3.7,0.9-7.6,1.2-10.3-1.8s1.1-5.4,1.9-8.1
			c0.4-1.6,1.1-3.2,1.9-4.6c6.4-11.2,9.7-23.1,9.1-36c-0.3-8.8-5.7-16.5-13.8-19.8c-4.5-1.7-8.5-1.3-12.2,1.6
			c-2.1,1.7-3.8,3.7-5.7,5.5L455.3,190.2z"/>
		<path d="M536.2,411.8c0.5,4-3.8,3.9-5.4,6.3c0.7,0.8,1.2,2.1,1.9,2.2c8.5,1.2,9.5,7.2,9.3,14.2c0,1.9,5.9,14,7,15.9
			c1,1.7,2.5,3.9,2.1,5.4c-1.1,4.7,2.2,7.6,3.5,11.3c1.9,5.8,5.5,5.7,9.8,5.4c1.5-0.1,3.2-2.3,4.5-0.7c6.4,8.6,11.7,0.5,16.7-1.5
			c4-1.6,7.1-5.8,9.9-9.6c3.4-4.7,6.2-5.5,10.7-1.8s8.9,3,13.8,2c4.7-1,9.4-1.9,14.3,0.7c5.9,3.1,13.2,0.3,15.1-5.8
			c0.9-3,1.4-4.6,5-4.3c6.5,0.6,8.8-5.1,12.2-9c1.5-1.7,0.9-3.7-0.8-5.3c-1-0.9-3.3-1.4-0.2-3s1-3.1-0.9-4c-1.8-0.9-3.6-1.9-4.8,1
			c-1,2.4-2,5.1-3.8,7c-3.4,3.4-6.6,7.8-12.6,6.2c4.8-5.2,12.1-7.8,14.5-15.7c1.2-3.9,9.3-2.8,11.5,1.2c3.8,7.3,1.8,16.3-4.8,21.2
			c-7.4,5.5-14.1,11.8-22.2,16.3c-5.9,3.3-11.5,5.1-18,2.8c-5.6-2-11.4-3.8-16.7-6.4c-4.7-2.3-7.9-1.5-11.3,2.4
			c-6.4,7.3-13.9,12.9-24.1,14.4c-7.7,1.1-13.9-0.5-18.3-6.9c-2.6-3.8-5.6-7.4-8.9-10.6c-5.2-5-6.1-11.5-5.9-18.4
			c0.4-13,0.3-12.7-12.3-11.2c-6.4,0.7-11.9,4-18.3,4.5c-4.9,0.4-5.1,5.1-5.2,8.5c-0.4,8.8-3,16.9-5.4,25.2c-1,3.5-2.4,6.5-5.9,7.3
			s-6.4-1.1-8.5-4c-3.8-5-7.9-9.9-11.5-15c-1.8-2.5-3.6-2.4-5.8-1c-0.7-2.1-0.3-4.1,1.6-5.1c2.2-1.2,3.9,0.3,4.9,2
			c3.3,5.3,8.9,8.6,11.7,16.4c3.2-7.6,9.1-10.2,11.5-15.7c4.4-5,6-11.2,5.8-17.5c-0.1-5.4,2.5-7.6,7-7.2c5.5,0.5,10.6-1,15.6-2.6
			c2.8-0.9,7.9,0.2,7-4.9c-0.8-4.2-5.6-2.3-8.5-3.4c-1-0.4-2.5,0.5-3.7,1.1c-6.4,3-12.5,3.8-18.9-0.4c-3.4-2.2-5.2,0.1-4.4,3.5
			c1.5,6.4,0.4,12.8-0.9,18.8c-1,4.3-0.3,8,0.3,12c-3.1-0.7-5.5,1.6-8.4,2.1c-4.3,0.8-7-0.6-7.4-5.2c3.7,1.9,6.5,0.6,8.1-2.8
			c3.6-7.4,7.9-14.6,5.8-23.4c-0.7-2.9-1.8-6,1.5-8c2.7-1.6,5.1-0.2,7.3,1.5c3.3,2.4,6.7,1.6,10.4,1.1
			C521.4,420.3,527.7,413.4,536.2,411.8z M542.9,451.3c0.8-0.5,1.1-1.6,0.7-2.5c-0.1-0.4-0.9-1.1-1-1c-0.8,0.5-1.1,1.5-0.7,2.4
			C542,450.6,542.6,451,542.9,451.3z M492.6,475.4c0.8-0.7,1.1-1.7,0.8-2.7c-0.1-0.3-0.5-0.7-0.6-0.7c-1.2,0.3-1.3,1.2-1.1,2.2
			C491.7,474.6,492.3,475,492.6,475.4z"/>
		<path d="M585.7,216.7c-0.5-0.5-3.2-11.6-3.2-12.4c0.5-13.2,2.6-26.3,1.2-39.4c-5.3-1.6-9.7-0.3-13.8,2c-3.6,1.9-7.7,2.4-11.6,1.2
			c-2.3-0.6-4.5-1.4-4.8-4.3c-0.3-3,0.9-5.1,3.9-6.1c6.6-2.1,12.9-5.1,18.7-8.9c3.9-2.4,6.6-6.4,7.4-11c1.6-6.9,2.4-14,2.5-21.2
			c6.6,2.1,7.5,6.5,7.8,11.1c0.4,5.6,0.3,11.3,0.9,16.9c0.8,6.4,2.2,7.5,8.4,6.9c10.2-1,20.4-2.3,30.7-3.4c2.4-0.3,4.3-1.6,6.4-2.6
			c4-1.8,8-3.3,12.4-2.5l1.2,1.5c-0.3,8.9-0.3,8.8-9.1,9.3c-1.3,0-2.6,0.4-3.7,1.1c-4,3.8-9.1,3.3-14,4c-8.1,1.1-16.1,2.6-24.4,2.5
			c-4.7-0.1-8.6,2.8-8.6,7.8c0,5.9-1.7,11.8,0.1,17.7c0.1,2.4,0.1,4.8,0.2,7.3c-0.6,6.8-1.2,13.7-1.9,20.5
			C591.8,220.6,588.7,218.8,585.7,216.7z"/>
		<path d="M705.3,215.5c1.8,4.4,2.5,9.3,1.9,14c-11.3,0-22,4.7-33.3,2.2c-1.6-0.4-3.4-0.1-4.9-0.7c-14-6.1-28.7-4.4-43.3-3.8
			c-3.5,0.1-7.1-0.5-10.5-0.8c-0.5-2.1,0.3-3.7,1.4-3.7c7.1-0.3,12.2-6.3,19.5-6.4c3.7,0,2.6-3.2,1.8-5.3
			c-2.6-5.7-4.4-11.7-5.3-17.9c-1-7.7,1-14.3,6.5-19.8c5.3-5.2,11.8-4.6,15.9,1.6c1.8,2.7,1.6,6.6,5.1,8.3c0.4,0.9,0.8,1.7,1.2,2.6
			c-0.5,1-0.2,2.2,0.7,2.9c0.2,1.1,0.4,2.2,0.6,3.3c-1.2,6.2-0.7,12.6-2.7,18.7c-2.4,7.2-1.7,9,5.7,10.4c10.8,2.1,21.9,0.8,31.9-3.8
			c0.5-0.2,0.6-1.1,0.9-1.7l0.7-0.4l6-0.1L705.3,215.5z M643.8,188.8c-0.8,0.4-1.6,0.9-2.3,1.5c-2.9,3.6,0.8,14.3,5.2,15.3
			c0.6,0.1,1.7,0.1,1.8-0.2c1.3-3.2,5-5.7,3.3-9.7C650.3,192.3,648.2,189.3,643.8,188.8z"/>
		<path d="M463,438.6c1.4,3.4,1,7.3-1.1,10.3c-5.1,7.7-7.2,17.9-17.4,21.7c-1.8,0.6-3.6,2.5-2.5,4.7c1.2,2.5,3.4,0.4,5.1,0.4
			c5.4,0,9.4-1.9,12.1-6.8c1.4-2.5,3.9-4.3,6-6.4c-4.3,14.3-15.4,23-29.7,23.5c-4.7,0.2-8.4-2.1-11.5-5.1
			c-6.4-6.2-14-10.9-19.7-17.5c-3.5,0.8-3.4,3.4-4.1,5.5c-0.3,1.3-0.7,2.5-1.2,3.8c-4.2,8.7-11.4,11.1-19.4,6.7
			c-9.9-5.5-10.9-11.5-6.1-21c4.8-9.8,10.8-18.9,17.9-27.2c1.8-2,2.9-4.2,5.9-4.9c8.1-1.8,10.6,0.3,12,10.3c-1.5-1-1.8-2.6-2.3-4.2
			c-1.2-4.2-4.4-4.4-7.8-3.8c-4.1,0.8-4.9,4-4.4,7.5c0.4,2.9,1.4,5.7,2,8.5c0.4,1.7,0.4,3.2-1.6,3.9c-1.2-0.8-2.2-2.5-3.9-0.5
			c-5.1,5.5-7.9,11.6-6.2,19.5c4.4-1,4.3-5.5,7.3-7.1c4.7,3.5-0.4,6.3-0.7,9.4c-0.1,1.3-0.5,2.8,0.8,3.6c2,1.2,3.2-0.4,3.7-1.9
			c1.7-4.8,3.1-9.7,4.6-14.5c-3.4-2-5.3,0.7-7.8,1.3c-0.5-2.3-0.5-4.5,1.9-5.9c3-0.2,5.8,1,7.8,3.3c5.4,5.8,11.4,11,17,16.6
			c2.3,2.3,4.4,1.1,6.2,0c3.5-1.9-0.5-3.9-0.3-5.9c2.3,0.4,4.5,0.8,6.8,1.2c9.3,1.4,16-2,20.7-10.1
			C456.9,451.5,458.4,444.3,463,438.6z M384.7,474.4c0.3-2-1.6-2.8-2.3-4.2c-0.8-1.7-1.6-4.4-4-2.4c-1.9,1.6-1.9,4.2,0.1,6.1
			C380.1,475.6,382.8,475.8,384.7,474.4L384.7,474.4z"/>
		<path d="M619.6,451.7c-3.1,2.2-6.3,1.5-9.4,0.2s-6.3-3-3.4-7.3c0.6-0.8,1-1.6,1.2-2.6c0.2-2.1-0.6-4.3-2.7-4.8
			c-2.3-0.5-3.6,1-3.2,3.6c0.2,1-0.5,2-1.5,2.2h-0.1c-5.5-5-7.4-11-5.7-18.4c0.4-2.3,0.4-4.6,0.1-6.9c-0.7-8.6,0.2-9.7,8.5-10.5
			c1-0.1,1.9-0.4,3.5-0.7c-3-5.2-8.1-6.9-12.5-9.2c-3.5-1.9-8.6,0.4-7.9,6.5c1.4,12.3,2.1,24.7,3.1,37c-5.6-12-7.1-24.9-6-37.9
			c0.8-8.9,5.2-11.1,13.9-8.5c11.2,3.5,16.5,11.6,17.9,22.7c0.9,7.4-0.7,14.5-2.6,21.6C610.2,448.5,610.4,448.5,619.6,451.7z"/>
		<path d="M549.8,321c-2.3-1.4-2.8-5.8-6.9-4.2c-3.5,1.4-3.5,4.5-3.2,7.5c1,12.6-2.2,25.1-0.2,37.7c2.2,13.9-0.8,28,1,42.1
			c0.3,2.3,0.8,6.4-3.6,7.1c-0.3-14.2-0.3-28.5-1-42.8c-0.7-11.3-0.7-22.6-0.1-33.9c0.5-8.5-2.4-17,0.6-25.6c2-5.8,4.1-8,11.1-8.9
			c5.1-0.7,9.1,0.8,11.4,5.8c1.7,3.6,3.8,7,3.6,11.2c-3.5-3-5.1-7.1-7.2-11c-2.2-4-5.3-4.4-8.9-1.7c-2.6,2-4.4,4.5-4,8.4
			c5.8,0.7,12.2-0.4,13.9,7c-0.4,0.4-0.8,0.8-1.2,1.2C553.5,320.3,551.5,320.3,549.8,321z"/>
		<path d="M550.2,421.1c-1.5-3.4-0.7-6.5,1.5-9.2s2.3-6,2.1-9.4l-0.1,0.1c1.3,0.1,2.6,0.2,3.3-1.4c4.8-10.1,8.3-20.7,10.5-31.6
			c0.6-2.6,0.8-5.2-0.7-7.7c-0.8-1.4-1.5-3.2-3.6-2.6c-1.5,0.4-1.6,1.9-1.7,3.2c-0.7,5.1,0.7,10.7-4.5,14.4
			c-2.5-3.8-0.5-7.6,0.4-11.2c3.7-15.1,3.9-30-2.1-44.7c0.4-0.4,0.8-0.8,1.2-1.2c4.8,2.7,3.2,9.8,8.2,12.5c3.2-1.9,2.5-5.1,3.1-7.8
			c5.8,7.2,6,16,5.4,24.3c-1.6,20.7-6.9,41-15.7,59.9C555.4,413.2,550.6,415.9,550.2,421.1z M568.3,334.5c-3,5.7-4.6,12.2-4.5,18.6
			c0,1.4-0.1,2.8,1.4,3.2c1.5,0.5,3.1-0.3,3.7-1.8c0-0.1,0.1-0.3,0.1-0.4C570.2,348.1,571.8,342,568.3,334.5L568.3,334.5z"/>
		<path d="M423.4,197.7c9.8,6.3,9.7,6.5,7.3,18.5c-1.6,8.1-2.4,16.4-4.9,24.3c-0.8,2.7-1.1,6-5.7,5.1s-5-3.7-4.5-7.3
			c0.2-1.1-0.2-2.7,2-2.4c5.8,0.6,3.4-4.3,3-6c-0.9-4.2-0.7-8.5,0.6-12.6c2.1-7.6-2-12.6-10-12.8c-4.4-0.1-8.5-0.6-12.4-2.8
			c-2.6-1.4-3.9-3.1-4-6.2c-0.1-4.1,2.5-5,5.5-5.7l5.4,1.2c4.6,3.6,9.9,5.1,15.6,5.8L423.4,197.7z"/>
		<path d="M335.9,233c-2.9,4.1-6.8,7.3-11.4,9.2c-5.1,2.4-9.9,6.5-14.5,8c-8.5,2.6-16.1,8.4-25.7,8.3c-7,0-14,0-20.9-0.1
			c-3.6-0.1-7.4,0.2-9.6-3.7c7.9,0.4,15.8,1.5,23.7,1.2c7.1-0.3,14.2-2,20.2-6.6c4.1-3.1,9.5-3.8,14.1-5.5c5.6-2,11-3.9,15.9-7.5
			C330,234.4,332.9,233.3,335.9,233z"/>
		<path d="M594.1,186.9c-1.8-5.9-0.2-11.8-0.1-17.7c0-5,3.9-7.9,8.6-7.8c8.3,0.2,16.3-1.4,24.4-2.5c4.9-0.6,9.9-0.2,14-4
			c1.1-0.7,2.3-1.1,3.7-1.1c8.8-0.5,8.8-0.5,9.1-9.3c6.5,8.5,5.2,12.5-5.2,14.3c-15.3,2.6-30.6,5.5-46.1,7.4
			c-5.3,0.6-5.9,2.3-5.3,6.7C597.7,177.8,597.2,182.7,594.1,186.9z"/>
		<path d="M305.2,85c-7.2,0.6-14.3-1.7-21.6,0.4c-17,4.9-31.7,12.6-40.7,28.7c-1.1,1.9-1.5,4.5-4.3,5c3.9-13.6,13.8-21.9,25.1-29.4
			c10-6.6,20.9-7.9,32.2-7.6C299.2,82.2,302.7,82.1,305.2,85z"/>
		<path d="M698.2,215.6c-0.3,0.6-0.5,1.5-0.9,1.7c-10,4.6-21.1,5.9-31.9,3.8c-7.4-1.4-8-3.2-5.7-10.4c2-6.1,1.5-12.5,2.7-18.7
			c2.9,5.8,1,11.6,0.1,17.4c-0.9,6.1,0.9,8.8,6.8,9.3c3.3,0.2,6.6,0.2,9.9-0.1c2.1-0.1,3.9-0.8,3.8-3.5c0-0.4-0.5-1.6,0-1.2
			C687.7,217.8,692.9,216.6,698.2,215.6z"/>
		<path d="M567.8,324.6c-0.7,2.7,0,5.9-3.1,7.8c-4.9-2.7-3.3-9.8-8.2-12.5c-1.7-7.4-8.1-6.3-13.9-7c-0.5-3.9,1.3-6.4,4-8.4
			c3.6-2.8,6.7-2.4,8.9,1.7c2.1,3.9,3.8,8,7.2,11c0.6,0.3,1,0.8,1.2,1.4C564.1,321.2,565.2,323.4,567.8,324.6L567.8,324.6z"/>
		<path d="M373.9,210.3c-8.8,3-15.6,9.8-24.3,13.1c-5.3,2-7.3,8.8-13.6,9.5c4.1-5.7,8.6-10.9,15.8-12.8c3.4-0.9,5.6-3.1,7.9-5.7
			C363.4,210.2,368.1,208.3,373.9,210.3z"/>
		<path d="M481.2,398.5c-3.1-7.1,0.6-14.2,0.4-21.3c-0.1-2.9-2.2-6.8,1.7-9.1C484,378.4,484.8,388.6,481.2,398.5z"/>
		<path d="M556.3,451.2c-6.6-7.2-5.5-16.3-6.2-24.9C554.2,434.1,555.1,442.6,556.3,451.2z"/>
		<path d="M460,421.1c1.8,4.4,6.6,8.2,3.1,13.8C460.9,430.5,460.3,425.8,460,421.1z"/>
		<path d="M421.3,196.9c-5.7-0.6-11-2.2-15.6-5.8C411.6,191.1,416.4,194.3,421.3,196.9z"/>
		<path d="M704.8,215.1l-6,0.1C700.8,212.2,702.7,210.4,704.8,215.1z"/>
		<path d="M476.4,431.3c-0.9-4.1,0.8-7.5,2.6-11C480.1,424.2,479.1,428.4,476.4,431.3z"/>
		<path d="M567.7,324.6c-2.6-1.2-3.7-3.4-4-6.1C566.8,319.4,567.8,321.6,567.7,324.6z"/>
		<path d="M661.8,188.7c-0.8-0.7-1.1-1.9-0.7-2.9C663,186.4,662.4,187.5,661.8,188.7z"/>
		<path d="M480.1,407c-0.8-1.7-0.9-3.3,0.9-4.6C481.8,404,481.4,405.9,480.1,407z"/>
		<polygon points="481.3,401.4 481.3,401.6 482,401.7 		"/>
		<path d="M479.3,418l-0.3-0.8l0.6-0.5c0.7,0.1,0.9,0.6,0.4,1.2C480,418,479.6,418,479.3,418z"/>
		<path d="M549.8,424.6c-1.7-0.7-1.4-1.3,0.1-1.9C549.9,423.4,549.9,424,549.8,424.6z"/>
		<path d="M377.4,210.2c-0.8,1.4-0.8,1.4-1.6,0l0.8-0.6L377.4,210.2z"/>
		<path d="M273.9,102.8c-8.8,11.3-22.2,18.2-27.8,32.7c-5,13-11.1,25.5-12.2,41.7c-2.5-3-3.6-3.7-3.6-4.4
			c-0.5-11.7-0.4-23.4,7.7-32.9c4.7-5.5,7.6-11.7,10.2-18.1c4-9.9,12.1-15.3,20.7-20.4c1.2-0.7,2.6-0.7,3.8,0
			C273.2,101.7,273.5,102.3,273.9,102.8z"/>
		<path d="M456.3,191.1c1.9-1.9,3.7-3.9,5.7-5.5c3.7-3,7.7-3.4,12.2-1.6c8.1,3.3,13.5,11.1,13.9,19.8c0.6,13-2.7,24.9-9.1,36
			c-0.8,1.4-1.5,3-1.9,4.6c-0.7,2.7-4.4,5.2-1.9,8.1s6.6,2.7,10.3,1.8c2.2-0.5,4.4-1.2,6.7-1.8c5.3-1.4,8.9-4.4,9.5-10.2
			c1.4-13.6,7.8-25.2,13.8-37.1c1.8-3.2,4-6.1,6.5-8.7c3.5-4,7.4-4.3,11.5-1.9c3.4,2,6.8,4.4,5.1,9.4c-0.7,2.3-0.8,4.7,1,6.6
			c6,6.1,7.8,13.6,6.6,22.7c11.6-0.9,21.7-3.4,28.8-13c2.6-3.5,6.6-4.1,10.8-3.7c0.7,4.2,0,7.9-3.7,10.6c-0.8,0.6-1.5,1.3-2.1,2.2
			c-7.9,13.4-20.1,15-33.6,11.6c-4.8-1.2-7.2,0-9.5,4.3c-2.9,5.3-7.5,9.5-13,12c-2.5,1.1-4.9,2.3-7.6,1.8
			c-8.4-1.8-16.4-0.1-24.2,2.4c-7,2.2-13.8,2.5-20.4-0.6c-3.9-1.8-6.6-1.3-9.8,1.5c-4.8,4.1-9.8,7.9-14.9,11.4
			c-8,5.7-17,5.9-26.2,3.8c-1.7-0.4-2.9-1.9-3-3.6c-0.2-2.1,1.3-2.4,2.8-3.3c3.9-2.3,7.1-5.5,12.3-2.6c2.2,1.3,5.1,0.6,7.6-0.8
			c6.7-3.8,11.1-10,15.8-15.7c3-3.8,0.6-8-0.8-12.2c-3.2-9.5-7.5-18.9-5.4-29.5c0.6-3,1.2-5.8,3-8.3
			C455,198.4,456.1,194.8,456.3,191.1z M460.6,222.2c0.3,1.5,0.8,4.4,1.3,7.4c0.3,1.9-0.2,4.3,2.5,4.8c2.9,0.5,4.3-1.9,4.8-4
			c1.9-7.7,3.2-15.4,4.9-23.1c0.5-2.1,0.8-3.9-1.8-4.8c-2.4-0.8-4.8-1-6,1.7C463.8,209.5,460.4,214.5,460.6,222.2z M518.2,242.1
			c3.8-4.9,12-5.8,12.3-12.6c0.3-5.5-0.1-11.4-3.7-17.1C520,221.9,518.2,231.7,518.2,242.1z"/>
		<path class="st1" d="M413.2,208.6c3.4,0.8,5.2,2.9,5.1,6.3c-0.1,3-0.6,6.6-4.2,6.7c-4,0.1-4-3.7-3.9-6.6
			C410.3,212.5,409.9,209.6,413.2,208.6z"/>
		<path class="st1" d="M470,318.2c3.8,1.3,3.4,4.3,3.7,6.8c1.8,15.5-1.6,75.6-5,84.9C462.5,378.5,462.1,348.4,470,318.2z"/>
		<path class="st1" d="M555.3,321c6,14.6,5.8,29.5,2.1,44.7c-0.9,3.7-2.9,7.4-0.4,11.2l-0.6,4.5c-3.3,0.4-3.4,3.2-4,5.5
			c-0.9,3.1-2.7,2.9-4.9,1.5v-3.6c1.6-4.8,1.9-9.6,0-14.4l-0.1-5.6v-2.3l0.1-3.6c1-2.1,1-4.5-0.1-6.6v-3.5c1.1-2.7,1.3-5.6,0.5-8.4
			c0.1-1.8,0.2-3.7,0.3-5.5c1.3-0.6,1.5-1.5,0.4-2.5c1.3-3.7,1.2-7.6,1.4-11.5C551.7,320.3,553.6,320.3,555.3,321z"/>
		<path d="M547.4,388.5c2.2,1.4,4,1.6,4.9-1.5c0.7-2.3,0.7-5.1,4-5.5c1.5,2.6,0.4,5.1-0.9,7.3c-2.4,4.2-3,9.2-1.9,13.9l0.1-0.1
			C546,399.8,546,399.8,547.4,388.5z"/>
		<path d="M547.4,370.4c1.9,4.8,1.6,9.6,0,14.4C545.2,380,545.7,375.2,547.4,370.4z"/>
		<path d="M547.6,340.4c0.8,2.8,0.6,5.7-0.5,8.4C545.2,345.9,542.7,343,547.6,340.4z"/>
		<path d="M547.2,352.4c1.1,2,1.2,4.5,0.1,6.6C545.5,356.8,545,354.6,547.2,352.4z"/>
		<path d="M547.3,362.5v2.3C545.9,364.1,546,363.3,547.3,362.5z"/>
		<path d="M548.4,332.5c1.1,1,1,1.8-0.4,2.5c-0.6-0.5-0.7-1.4-0.2-2C547.9,332.7,548.1,332.6,548.4,332.5z"/>
		<path d="M495.1,456.2c-0.6-4-1.2-7.7-0.3-12c1.3-6,2.5-12.4,0.9-18.8c-0.8-3.4,1-5.7,4.4-3.5c6.4,4.2,12.5,3.4,18.9,0.4
			c1.2-0.5,2.7-1.5,3.7-1.1c2.9,1.1,7.7-0.8,8.5,3.4c1,5.1-4.2,4-7,4.9c-5,1.6-10.1,3.1-15.6,2.6c-4.6-0.4-7.1,1.8-7,7.2
			c0.1,6.3-1.5,12.5-5.8,17.5C495.7,456.6,495.4,456.4,495.1,456.2z"/>
		<path class="st1" d="M643.8,188.8c4.3,0.5,6.5,3.5,8,6.9c1.8,4-2,6.5-3.3,9.7c-0.1,0.3-1.2,0.3-1.8,0.2c-4.5-1-8.2-11.7-5.2-15.3
			C642.2,189.6,643,189.1,643.8,188.8z"/>
		<path d="M553.7,402.7c-1.2-4.7-0.5-9.7,1.9-13.9c1.2-2.2,2.4-4.6,0.9-7.3l0.6-4.5c5.2-3.6,3.8-9.3,4.5-14.4
			c0.2-1.3,0.2-2.8,1.7-3.2c2.1-0.6,2.7,1.2,3.6,2.6c1.5,2.5,1.3,5.1,0.7,7.7c-2.2,10.9-5.8,21.5-10.5,31.6
			C556.3,402.8,555,402.8,553.7,402.7z"/>
	</g>
</g>
</svg>
